<svg width="440" height="227" viewBox="0 0 440 227" fill="none" xmlns="http://www.w3.org/2000/svg">
<path fill-rule="evenodd" clip-rule="evenodd" d="M181.927 1.99961C180.518 3.17064 178.408 4.32356 177.235 4.56252C172.503 5.52518 170.046 18.0148 172.825 26.9912L174.59 32.6935L173.018 36.6687L171.447 40.6428H167.58C161.544 40.6428 153.991 42.9543 150.133 45.9815C146.336 48.9624 134.897 64.3614 134.897 66.4917C134.897 67.2063 133.391 70.8259 131.551 74.5361L128.205 81.2815L128.896 85.1763C129.349 87.7346 131.784 91.6045 135.993 96.4585C139.516 100.521 142.399 104.299 142.399 104.854C142.399 105.408 140.832 106.349 138.918 106.945C134.079 108.451 133.783 111.656 138.137 115.41L141.611 118.407L141.403 130.181C141.289 136.657 141.037 142.123 140.842 142.33C140.647 142.535 138.678 141.905 136.468 140.929C130.062 138.101 121.126 137.026 114.004 138.227C106.072 139.566 100.511 142.128 93.9013 147.487L88.8103 151.616V132.816V114.016L95.8884 104.44C99.7811 99.171 102.774 94.659 102.54 94.4109C102.305 94.164 99.2409 97.8368 95.7298 102.575L89.3462 111.189L88.7825 82.9939L88.2177 54.7994L87.9304 73.4862C87.7729 83.764 87.685 106.039 87.7364 122.987L87.8286 153.8L85.1459 158.096C71.2481 180.343 80.0292 212.509 103.011 223.546L108.638 226.248L80.9092 226.313L53.179 226.378L54.2529 224.963C55.3086 223.572 58.8005 199.169 58.8005 193.188V190.137H51.7085H44.6176L45.2639 187.589C45.6186 186.188 45.9166 184.674 45.9241 184.225C45.953 182.615 62.6385 175.192 66.5709 175.04C71.2503 174.86 71.4357 174.315 68.1764 170.311C65.0157 166.428 58.3568 165.366 53.5691 167.984C49.9251 169.975 45.9498 175.777 45.9434 179.113C45.9337 183.769 43.3143 189.958 41.4173 189.808L39.5084 189.655V181.196C39.5084 176.543 40.0647 168.156 40.7442 162.558L41.9789 152.379L47.5575 146.625L53.135 140.872L55.4319 134.317L57.7287 127.763V118.178C57.7287 112.907 57.2989 108.595 56.7727 108.595C54.389 108.595 44.3293 119.789 42.0346 124.994C39.3487 131.088 38.7078 140.204 40.5009 146.81C41.175 149.291 41.0035 153.661 39.9693 160.393C39.1311 165.851 38.3745 174.905 38.2877 180.511L38.1312 190.703L37.1344 179.944C36.5867 174.027 36.247 167.147 36.381 164.655C36.5149 162.164 36.6703 155.496 36.7261 149.839L36.829 139.555L33.5911 134.024C29.5441 127.112 22.8401 121.628 15.6999 119.387C12.6785 118.439 10.087 117.789 9.94119 117.942C9.7965 118.096 10.7868 123.193 12.1426 129.27C15.5059 144.34 19.2153 151.629 27.5827 159.609L34.4625 166.171L35.3145 171.642C35.7818 174.651 36.1945 180.044 36.2288 183.625L36.2931 190.137H34.8065C33.2803 190.137 32.739 188.061 31.0381 175.659C29.4519 164.101 23.0501 157.294 13.7685 157.294C8.98517 157.294 6.01847 158.55 2.26403 162.162C-1.14102 165.44 -0.73589 166.875 3.68735 167.209C8.3496 167.561 9.80401 168.351 16.3837 174.096C19.2142 176.567 23.5946 179.2 26.1197 179.947L30.7091 181.305L31.3575 184.73C31.7144 186.614 32.006 188.601 32.006 189.146C32.006 189.691 28.871 190.137 25.0394 190.137H18.0728V193.501C18.0728 198.632 21.2292 220.952 22.3567 223.794L23.3545 226.305L11.3356 226.666C4.72483 226.864 107.111 227.015 238.86 226.999C370.608 226.984 459.472 226.832 436.335 226.661L394.268 226.352V224.572C394.268 222.375 388.271 206.343 386.175 202.934L384.641 200.441L381.148 201.682C379.228 202.365 376.997 203.469 376.193 204.138C375.39 204.805 371.772 205.457 368.155 205.587C364.538 205.716 358.571 206.156 354.895 206.562L348.211 207.302L350.139 202.967C351.199 200.583 353.966 194.554 356.287 189.571L360.507 180.511L360.281 164.84L360.055 149.169L355.596 137.659C348.807 120.136 344.428 111.589 340.248 107.711C336.681 104.402 330.678 101.82 326.515 101.806C324.166 101.797 322.14 97.847 323.007 94.9613C323.699 92.66 325.674 91.865 325.674 93.8888C325.674 95.6658 332.317 99.5255 335.383 99.53C336.891 99.5322 339.036 98.8312 340.148 97.9716L342.17 96.4099L339.027 93.5536L335.885 90.6973L336.12 83.5069C336.581 69.314 332.069 61.0284 323.878 61.0284H320.103L317.1 64.426C315.075 66.716 313.065 67.8236 310.935 67.8236C305.412 67.8236 301.26 70.1158 297.125 75.4489L293.105 80.6325L293.213 84.6644C293.278 87.097 294.109 89.387 295.304 90.4357C296.394 91.3916 298.188 94.3113 299.291 96.924C301.615 102.43 304.731 105.765 308.525 106.802L311.205 107.535L307.296 105.266C304.716 103.769 302.571 101.215 300.983 97.7508L298.579 92.5026L300.069 91.506L301.559 90.5093L299.683 90.4912C297.74 90.4731 297.141 86.8332 298.476 83.1569L299.144 81.3166L301.172 83.2555C302.365 84.3959 305.627 85.4073 309.098 85.7108C312.342 85.9951 315.271 86.6984 315.607 87.2737C315.959 87.8751 316.88 87.7392 317.776 86.9532L319.334 85.5874L320.601 86.926L321.869 88.2658L320.508 90.5682L319.148 92.8695L320.607 95.9195C321.408 97.5956 322.755 100.121 323.599 101.53L325.135 104.093L323.495 107.193C322.454 109.161 320.789 110.425 318.934 110.653L316.012 111.012L315.067 108.388C314.434 106.631 314.561 105.202 315.448 104.065C318.391 100.293 318.338 99.1823 315.366 102.366C313.621 104.235 312.368 106.156 312.58 106.635C312.792 107.116 311.779 108.999 310.328 110.821C308.878 112.642 305.871 118.775 303.646 124.448C301.42 130.121 298.81 135.209 297.844 135.755C296.878 136.301 292.256 137.756 287.57 138.99L279.051 141.231L277.359 139.635C275.554 137.934 269.43 137.383 270.381 139.008C270.692 139.539 269.788 140.532 268.372 141.214L265.798 142.453L259.563 140.117L253.329 137.779L243.415 138.386L233.501 138.992V136.181C233.501 132.486 228.468 113.393 226.482 109.553C225.626 107.899 224.927 105.998 224.927 105.329C224.927 103.959 232.582 99.5345 234.951 99.5345C238.552 99.5345 238.676 92.8831 235.141 89.3745L232.494 86.7471L226.834 87.9861L221.175 89.2262L226.591 88.7086L232.006 88.1899L234.361 90.5093C236.738 92.8492 237.491 96.6296 235.799 97.7349C235.295 98.0645 235.105 97.0984 235.379 95.5888L235.876 92.8435L233.142 92.1187C229.732 91.2149 228.142 92.1934 228.142 95.1935V97.5152L225.416 96.7926C223.74 96.3476 219.384 97.1732 214.107 98.9343C203.512 102.471 197.884 102.64 195.119 99.5028C193.29 97.428 190.63 90.2421 190.63 87.3756C190.63 86.3178 199.952 82.9033 201.512 83.388C201.898 83.508 202.732 82.9463 203.366 82.1399L204.517 80.6733L201.873 69.1316C198.822 55.8187 197.772 53.8005 191.179 48.5818C185.759 44.2907 185.185 42.9078 188.819 42.9078C193.632 42.9078 199.061 34.4807 200.891 24.1701C201.293 21.9107 202.764 18.7577 204.163 17.1631C205.562 15.5685 206.706 13.1007 206.706 11.6782C206.706 8.75403 204.12 5.53424 201.771 5.53424C200.909 5.53424 197.824 4.26014 194.917 2.70291C188.597 -0.681103 185.363 -0.855511 181.927 1.99961ZM184.256 15.0883C183.554 15.983 182.623 18.1156 182.19 19.8279C181.193 23.7726 179.3 24.5008 178.495 21.2493L177.876 18.752L176.215 20.2096C174.144 22.0251 174.113 23.5302 176.098 25.8474L177.645 27.6526L175.032 34.4308C173.595 38.1591 172.417 41.6145 172.415 42.1094C172.402 44.3518 177.889 48.5705 180.818 48.5705H183.966L184.66 45.6531L185.352 42.7357L182.632 40.474C181.136 39.2305 179.912 37.765 179.912 37.2169C179.912 36.6687 181.188 37.4705 182.748 38.9983C186.529 42.7006 190.174 42.5307 193.751 38.4842C196.785 35.0515 199.776 26.682 198.654 24.7635C198.297 24.1542 198.517 23.6548 199.141 23.6548C199.764 23.6548 200.276 22.3807 200.276 20.8234V17.9921H198.089C196.887 17.9921 194.012 16.9728 191.701 15.727C186.695 13.0282 185.925 12.9625 184.256 15.0883ZM187.95 21.3897C190.896 22.7272 192.589 22.7272 190.63 21.3897C189.745 20.7861 188.298 20.3195 187.414 20.3546C186.354 20.3953 186.536 20.7476 187.95 21.3897ZM192.646 29.0694C192.293 31.3209 192.449 32.3775 193.044 31.749C193.584 31.1782 193.847 29.5054 193.627 28.032L193.229 25.3536L192.646 29.0694ZM187.887 35.5826C189.032 36.4966 190.449 37.2452 191.039 37.2452C191.628 37.2452 191.175 36.4966 190.03 35.5826C188.887 34.6675 187.468 33.9201 186.878 33.9201C186.289 33.9201 186.743 34.6675 187.887 35.5826ZM158.207 43.3756C151.398 45.3111 149.317 47.1786 140.954 58.8562L135.757 66.1123L139.532 69.562C141.609 71.459 144.616 73.7513 146.213 74.6539L149.117 76.2972L150.849 73.5123C153.052 69.9731 157.849 64.4316 156.755 66.691C156.303 67.6254 154.15 70.938 151.973 74.0525C149.358 77.7899 147.77 81.5091 147.299 84.9905L146.585 90.2659L149.798 95.7496L153.011 101.233L159.227 104.451C162.645 106.221 166.166 108.059 167.05 108.536C169.325 109.764 169.743 113.125 167.621 113.125C164.859 113.125 155.275 118.108 155.641 119.354C155.823 119.977 157.381 120.808 159.1 121.202C164.026 122.329 179.506 122.293 182.355 121.148L184.939 120.109L185.602 111.238C186.369 100.974 190.221 76.5067 191.724 72.3537L192.747 69.5224L192.261 72.92C191.994 74.7887 191.459 78.2542 191.073 80.6201L190.371 84.9237L193.447 84.1502C195.14 83.7255 198.058 82.722 199.933 81.9202L203.341 80.4638L201.767 73.2937C198.177 56.9297 196.678 53.9274 189.341 48.4074L186.079 45.9532L185.085 47.8276C184.5 48.9341 182.751 49.703 180.823 49.703H177.554L173.803 45.7392L170.051 41.7753L166.675 41.8512C164.818 41.8942 161.008 42.5794 158.207 43.3756ZM135.187 70.3344C133.071 73.1238 129.538 81.3404 129.538 83.4763C129.538 86.4175 134.086 93.3226 140.398 99.9683C143.287 103.009 146.969 107.982 148.58 111.017L151.51 116.537L152.206 113.981L152.904 111.426L153.01 113.974C153.135 116.954 155.225 117.463 155.336 114.541L155.412 112.559L156.333 114.824L157.253 117.089L157.475 113.691L157.696 110.294L158.161 112.842C158.416 114.244 159.13 115.39 159.747 115.39C160.884 115.39 160.53 112.082 158.968 108.126L158.112 105.958L159.532 106.885C160.442 107.479 160.694 107.373 160.235 106.587C159.84 105.914 157.945 104.813 156.022 104.143L152.526 102.924L146.981 93.1776L141.437 83.431L143.718 80.1716C144.972 78.3788 146.231 77.1568 146.515 77.4569C146.798 77.757 146.172 79.0039 145.124 80.2293L143.217 82.4548L143.995 85.6157L144.773 88.7754L145.569 86.5104C146.005 85.2646 146.65 82.6666 147.001 80.7379L147.639 77.2315L142.607 73.3764C136.255 68.5099 136.497 68.6084 135.187 70.3344ZM322.543 73.014C322.595 74.3334 322.849 74.6018 323.191 73.6992C323.5 72.8815 323.462 71.9041 323.106 71.5281C322.75 71.1521 322.497 71.8203 322.543 73.014ZM77.0208 76.2519C77.0208 77.3448 85.908 91.6532 86.3185 91.2194C86.5596 90.9646 84.7536 87.3802 82.3046 83.2543C78.2704 76.4546 77.0208 74.7989 77.0208 76.2519ZM294.592 85.3778C294.592 86.3122 294.782 87.0766 295.014 87.0766C295.245 87.0766 295.712 86.3122 296.052 85.3778C296.391 84.4435 296.201 83.679 295.631 83.679C295.06 83.679 294.592 84.4435 294.592 85.3778ZM202.779 87.0766L202.955 89.908L210.993 89.9793L219.032 90.0507L211.33 89.6498L203.628 89.2488L203.116 86.7471L202.603 84.2453L202.779 87.0766ZM307.454 88.2092C306.569 88.8128 306.328 89.3066 306.918 89.3066C307.507 89.3066 308.713 88.8128 309.597 88.2092C310.481 87.6055 310.723 87.1117 310.133 87.1117C309.544 87.1117 308.338 87.6055 307.454 88.2092ZM189.155 92.7393C187.833 98.5028 186.359 110.449 186.351 115.447C186.346 118.28 185.771 121.202 185.074 121.939C184.377 122.677 184.07 123.559 184.393 123.901C185.586 125.16 219.793 117.22 220.403 115.543C220.728 114.645 220.53 111.512 219.962 108.582C218.692 102.027 219.034 100.84 222.628 99.3261C228.8 96.7258 222.367 97.2876 214.664 100.021C204.815 103.516 197.102 103.845 194.559 100.875C193.59 99.744 192.124 96.813 191.3 94.3634L189.803 89.908L189.155 92.7393ZM304.238 95.5706C304.238 97.1279 304.654 98.402 305.161 98.402C305.669 98.402 305.855 97.1279 305.573 95.5706C305.291 94.0134 304.875 92.7393 304.649 92.7393C304.424 92.7393 304.238 94.0134 304.238 95.5706ZM223.587 100.182C220.609 101.889 220.128 103.63 221.326 108.358C222.295 112.179 224.449 110.697 224.039 106.489L223.688 102.875L226.986 101.66C228.801 100.992 230.285 99.9853 230.285 99.4235C230.285 97.8923 226.917 98.274 223.587 100.182ZM307.99 100.667L305.846 101.64L307.658 101.72C308.655 101.763 309.769 101.29 310.133 100.667C310.895 99.3646 310.858 99.3646 307.99 100.667ZM143.471 106.33C143.471 106.953 143.982 107.462 144.606 107.462C145.23 107.462 145.443 106.953 145.079 106.33C144.714 105.707 144.204 105.197 143.944 105.197C143.683 105.197 143.471 105.707 143.471 106.33ZM52.1018 114.35C49.626 115.871 49.7278 117.336 52.3698 118.221C54.8381 119.049 55.2239 121.655 53.0107 122.552C51.4813 123.173 48.5982 130.395 45.5672 141.198L43.8866 147.186L47.1899 144.701C51.9925 141.087 55.5198 131.841 55.8499 121.996C56.1285 113.695 55.4437 112.297 52.1018 114.35ZM223.039 116.806C223.306 117.585 224.378 121.599 225.421 125.725L227.317 133.231L229.337 132.672C231.808 131.99 231.819 132.561 229.169 123.157L226.979 115.39H224.767C223.452 115.39 222.751 115.964 223.039 116.806ZM146.151 118.788C149.078 120.117 149.902 120.117 149.902 118.788C149.902 118.165 148.575 117.691 146.954 117.734L144.007 117.815L146.151 118.788ZM150.974 117.957C150.974 120.316 153.639 125.583 154.833 125.583H156.339L154.947 121.979C153.803 119.016 150.974 116.153 150.974 117.957ZM188.03 125.268L159.174 131.521L157.903 129.685C155.814 126.664 153.932 127.431 154.673 131L155.329 134.152L151.727 138.644C139.2 154.273 121.185 178.822 121.899 179.29C122.368 179.594 126.073 175.407 130.134 169.985C143.324 152.372 155.531 136.908 156.245 136.908C156.627 136.908 159.561 145.317 162.763 155.595C166.272 166.859 169.132 174.282 169.961 174.282C170.718 174.282 171.337 174.086 171.337 173.845C171.337 173.604 168.63 164.913 165.322 154.531C162.013 144.15 159.526 135.421 159.797 135.136C160.066 134.85 173.952 131.676 190.654 128.08C208.622 124.211 221.198 120.98 221.455 120.165C222.118 118.062 219.308 118.491 188.03 125.268ZM11.6421 120.442C11.6421 124.044 16.6838 142.037 18.9099 146.379C22.1799 152.758 32.2107 164.005 32.843 162.001C33.7808 159.03 26.1701 139.713 21.0352 132.029C19.867 130.281 19.1424 128.606 19.4254 128.305C20.9838 126.66 30.9449 147.307 33.2396 156.939L34.5096 162.268L35.3263 160.064C35.7754 158.852 36.172 154.547 36.2073 150.499L36.2716 143.137L33.7347 137.474C32.3382 134.36 29.5698 130.184 27.5816 128.196C22.929 123.539 11.6421 118.049 11.6421 120.442ZM43.7184 125.184C40.9971 131.125 39.8107 140.187 41.3701 143.131L42.4087 145.092L43.6969 139.686C44.4054 136.713 46.1642 131.319 47.6057 127.701C50.7535 119.798 50.7439 119.92 48.1781 119.92C46.8019 119.92 45.34 121.646 43.7184 125.184ZM201.615 127.079L185.271 130.587L185.404 141.393C185.477 147.335 185.839 155.622 186.207 159.808L186.878 167.419L204.831 146.374C214.704 134.799 222.783 124.876 222.783 124.323C222.783 122.811 219.5 123.238 201.615 127.079ZM221.711 129.038C220.827 130.174 211.315 141.276 200.572 153.712L181.042 176.32L182.352 177.468L183.663 178.614L199.74 159.885C224.814 130.674 224.674 130.852 223.966 128.826L223.319 126.975L221.711 129.038ZM221.52 136.776C220.152 138.572 211.676 148.5 202.687 158.836L186.342 177.632V191.087C186.342 198.488 186.653 206.938 187.033 209.865L187.723 215.184L193.999 218.533L200.276 221.881V224.129V226.378H208.85C213.972 226.378 217.424 225.913 217.424 225.222C217.424 224.585 218.59 223.503 220.016 222.816L222.608 221.568L217 215.763C210.409 208.941 206.067 200.174 204.437 190.394L203.267 183.369L204.508 175.837C206.653 162.822 213.426 151.826 223.4 145.167C228.378 141.844 229.281 139.155 226.65 135.492C224.766 132.87 224.436 132.952 221.52 136.776ZM229.237 137.097C229.25 137.927 231.157 145.487 233.475 153.896C237.695 169.208 243.58 183.342 246.094 184.204C248.163 184.913 247.691 182.578 244.827 177.939C242.245 173.754 239.205 164.468 234.388 146.053C233.016 140.805 231.291 136.303 230.553 136.049C229.817 135.795 229.224 136.266 229.237 137.097ZM273.388 141.41L274.711 143.647L273.371 145.062L272.031 146.478L269.915 145.08L267.798 143.684V145.167C267.798 147.349 270.066 149.366 272.522 149.366C273.705 149.366 276.46 151.209 278.642 153.46C282.392 157.33 285.798 157.876 284.538 154.405L283.984 152.878L289.02 152.44L294.056 152.001L288.438 152.022L282.82 152.043L280.132 149.375C278.654 147.907 277.444 145.623 277.444 144.299C277.444 141.587 275.572 139.173 273.47 139.173H272.067L273.388 141.41ZM312.38 140.998L311.716 142.823L313.423 142.13C314.363 141.75 315.361 141.438 315.643 141.438C315.924 141.438 315.856 140.929 315.492 140.306C314.509 138.625 313.13 138.932 312.38 140.998ZM268.87 141.965C268.87 142.254 269.834 143.036 271.013 143.703L273.157 144.915V143.177C273.157 142.194 272.225 141.438 271.013 141.438C269.834 141.438 268.87 141.675 268.87 141.965ZM56.8123 143.783C49.1319 147.033 43.8052 154.739 43.7837 162.628C43.7773 164.989 43.0539 169.422 42.1761 172.48C41.2983 175.538 40.652 180.124 40.741 182.673L40.9017 187.306L41.3165 183.908C41.5437 182.04 42.2286 177.841 42.8363 174.58L43.9413 168.648L48.9562 166.005C51.9432 164.432 55.8692 160.876 58.6611 157.213C61.2409 153.832 64.975 150.045 66.9599 148.8C71.2985 146.077 71.3885 145.584 67.8602 143.886C64.6395 142.334 60.3288 142.294 56.8123 143.783ZM163.851 144.364C163.861 145.557 164.357 147.299 164.956 148.233L166.044 149.932L165.325 146.535C164.443 142.37 163.83 141.467 163.851 144.364ZM278.516 144.769C278.516 145.979 278.998 147.282 279.587 147.667C280.195 148.065 280.659 147.112 280.659 145.469C280.659 143.875 280.177 142.571 279.587 142.571C278.998 142.571 278.516 143.559 278.516 144.769ZM57.3589 145.327C52.2337 147.293 48.2531 151.091 46.3367 155.842C43.8073 162.114 44.6219 163.654 47.923 158.838C51.3398 153.855 57.2614 148.233 59.0941 148.233C59.7544 148.233 58.2635 149.812 55.7802 151.742C51.8811 154.772 45.9391 163.185 45.9391 165.677C45.9391 167.78 55.1146 160.738 57.8541 156.531C59.5486 153.931 62.7339 150.237 64.9343 148.321C67.1679 146.375 68.2354 144.829 67.3511 144.82C66.4798 144.812 64.8025 144.566 63.6235 144.276C62.4445 143.985 59.6257 144.458 57.3589 145.327ZM109.521 145.333C99.7757 148.554 91.6291 156.341 87.1405 166.728L84.2874 173.33L84.1985 181.451C83.8255 215.604 119.111 233.839 143.952 212.329C148.511 208.382 154.688 197.927 153.903 195.49C153.657 194.726 152.382 196.315 151.069 199.022C147.859 205.64 140.887 212.804 134.361 216.187L129.002 218.965L120.428 218.918L111.854 218.871L106.799 216.289C98.735 212.169 92.7363 205.84 89.3237 197.847L86.2724 190.703L86.2327 183.342C86.2091 179.013 87.0151 173.446 88.1876 169.83L90.1833 163.678L96.196 157.229L102.208 150.78L108.638 148.262L115.069 145.744L122.053 146.253C125.894 146.531 131.394 147.863 134.276 149.21C137.157 150.556 139.77 151.389 140.082 151.059C142.26 148.758 128.38 143.678 120.187 143.779C116.783 143.821 111.983 144.52 109.521 145.333ZM238.592 144.418C234.428 145.715 237.19 146.569 245.558 146.573L254.401 146.578L259.976 149.22C267.019 152.559 275.344 161.753 278.058 169.189C279.479 173.082 280.123 177.675 280.123 183.908V192.969L277.144 199.38C272.372 209.646 263.321 216.959 252.081 219.628L246.898 220.858L240.116 219.509C228.082 217.116 217.303 207.174 213.306 194.782C211.291 188.531 211.775 176.319 214.323 169.121C216.54 162.862 222.508 155.217 228.142 151.419C229.616 150.426 230.469 149.228 230.037 148.756C228.933 147.547 221.245 153.41 217.952 157.971C216.438 160.07 214.016 164.471 212.57 167.752L209.943 173.715L209.932 182.45C209.908 203.128 221.569 217.825 241.298 221.983L246.898 223.163L254.855 220.824C267.266 217.176 274.556 210.652 279.867 198.439L282.245 192.969L282.252 183.342L282.257 173.715L279.176 166.655C275.569 158.392 267.984 150.33 260.528 146.837C255.6 144.528 242.778 143.114 238.592 144.418ZM112.925 147.908C111.746 148.209 110.371 148.863 109.87 149.364C108.833 150.398 117.587 175.414 118.984 175.414C119.484 175.414 119.892 169.044 119.892 161.258V147.101L117.48 147.232C116.154 147.305 114.104 147.608 112.925 147.908ZM120.964 161.179C120.964 169.568 121.371 175.282 121.943 174.908C122.482 174.557 124.248 170.701 125.866 166.34C127.486 161.98 129.002 158.615 129.237 158.863C129.472 159.111 128.906 161.232 127.979 163.574C127.053 165.917 126.458 168.007 126.658 168.218C126.859 168.43 129.553 165.264 132.647 161.185L138.273 153.767L136.952 152.084C136.225 151.159 134.863 150.569 133.924 150.775C132.985 150.98 131.735 150.509 131.146 149.728C130.556 148.948 128.025 147.972 125.519 147.561L120.964 146.811V161.179ZM239.125 147.9L236.713 148.392L237.388 151.427C238.642 157.065 244.315 175.414 244.805 175.414C245.072 175.414 245.29 169.044 245.29 161.258V147.101L243.415 147.255C242.384 147.34 240.453 147.63 239.125 147.9ZM246.362 162.475C246.362 171.812 246.752 177.697 247.328 177.056C247.859 176.465 250.535 170.165 253.273 163.056L258.253 150.132L256.862 149.199C256.098 148.688 254.93 148.261 254.267 148.25C253.603 148.241 251.554 147.915 249.711 147.526L246.362 146.818V162.475ZM101.539 153.671L97.6547 156.781L106.362 166.686C114.647 176.111 116.677 177.849 116.677 175.516C116.677 172.807 107.727 150.502 106.651 150.53C105.976 150.547 103.675 151.961 101.539 153.671ZM258.209 153.047C257.679 154.449 255.331 160.516 252.989 166.531L248.732 177.465L249.905 178.705C250.551 179.387 251.495 179.944 252.004 179.944C252.996 179.944 275.477 169.942 276.199 169.179C276.437 168.927 275.314 166.345 273.703 163.439L270.773 158.157L260.474 168.767C249.882 179.682 250.547 178.141 261.903 165.463C265.44 161.514 268.47 157.884 268.636 157.396C268.915 156.579 261.085 150.499 259.756 150.499C259.434 150.499 258.738 151.645 258.209 153.047ZM226.802 154.026C225.182 155.305 223.855 156.961 223.855 157.707C223.855 158.453 226.749 162.089 230.285 165.788C233.822 169.487 236.716 172.093 236.716 171.578C236.716 169.394 231.162 151.634 230.488 151.667C230.082 151.687 228.423 152.749 226.802 154.026ZM130.207 154.507C129.173 157.354 129.477 158.089 130.741 155.793C131.366 154.656 131.653 153.487 131.376 153.196C131.101 152.904 130.573 153.494 130.207 154.507ZM144.217 154.67C143.835 155.323 144.527 156.818 145.756 157.991C148.272 160.395 153.117 169.929 153.117 172.479C153.117 174.221 155.035 176.03 155.906 175.111C156.181 174.819 155.418 171.784 154.208 168.369C151.812 161.598 145.348 152.736 144.217 154.67ZM286.551 155.024C286.914 155.644 285.977 156.746 284.47 157.47C281.496 158.903 280.61 161.388 283.49 160.22L285.25 159.507L283.758 161.443L282.267 163.38L283.976 162.705C284.975 162.311 286.265 162.879 287.08 164.074L288.475 166.12L291.674 164.064C293.433 162.934 295.653 162.27 296.608 162.589L298.344 163.17L296.736 161.948C295.852 161.276 295.502 160.718 295.96 160.708C296.416 160.699 296.042 159.162 295.128 157.294L293.466 153.896H289.678C287.437 153.896 286.161 154.357 286.551 155.024ZM315.572 157.949C309.419 160.331 309.597 160.691 316.921 160.691H323.53V158.426C323.53 155.749 321.562 155.631 315.572 157.949ZM7.89088 159.944C6.12137 160.786 4.09141 162.219 3.37868 163.126L2.0829 164.776L6.59509 166.056C9.07627 166.759 13.0354 169.079 15.3933 171.208C20.2689 175.612 26.2612 179.137 27.8967 178.56C29.8731 177.864 19.2732 166.563 15.9132 165.784C12.3806 164.964 10.52 162.956 13.2927 162.956C16.6827 162.956 22.451 166.671 26.2676 171.314L30.1046 175.98L29.3254 173.149C28.1465 168.865 24.5399 163.033 21.9709 161.256C18.4715 158.837 11.5617 158.193 7.89088 159.944ZM93.4361 162.115C92.1479 164.135 90.9421 166.436 90.7567 167.227C90.5509 168.098 94.6441 170.65 101.136 173.698C111.931 178.768 115.012 179.71 114.354 177.742C113.872 176.298 97.2967 158.424 96.4489 158.434C96.0792 158.439 94.7234 160.094 93.4361 162.115ZM161.347 160.006C159.366 165.464 161.012 175.414 163.897 175.414C167.046 175.414 167.147 173.893 164.539 165.724L162.074 158.003L161.347 160.006ZM220.489 160.307C219.541 161.453 218.033 163.902 217.139 165.749L215.514 169.108L227.419 174.539C233.967 177.525 239.809 179.798 240.402 179.59C240.995 179.382 237.145 174.489 231.847 168.718L222.215 158.226L220.489 160.307ZM136.773 163.463C133.171 168.231 132.963 169.769 136.316 166.834C137.686 165.636 136.118 167.381 132.833 170.713L126.859 176.772L131.948 176.232C134.749 175.935 137.764 175.057 138.65 174.281L140.26 172.868L140.118 166.214C140.039 162.553 139.918 159.559 139.847 159.559C139.778 159.559 138.393 161.315 136.773 163.463ZM301.148 162.806L298.595 163.562L300.345 165.097C302.427 166.923 302.69 172.017 300.701 172.017C299.935 172.017 298.729 171.405 298.022 170.658L296.736 169.299V170.591C296.736 171.302 297.218 172.198 297.808 172.583C299.653 173.788 298.977 176.547 296.837 176.547H294.793L295.344 179.095C295.832 181.351 296.847 185.359 301.1 201.802L302.213 206.106L304.565 205.343C305.859 204.922 307.088 204.42 307.297 204.225C307.505 204.029 306.827 197.789 305.789 190.357C304.751 182.924 304.203 176.012 304.572 174.996L305.243 173.149L310.368 173.194C313.186 173.219 318.97 173.884 323.221 174.672L330.949 176.106L329.787 174.627L328.627 173.149H330.328C331.263 173.149 332.549 174.178 333.186 175.433L334.342 177.718L330.971 193.65C329.117 202.414 327.527 212.034 327.44 215.028L327.282 220.473L329.269 222.795C330.361 224.072 332.574 225.424 334.186 225.797C337.106 226.476 350.742 223.759 362.408 220.175L368.545 218.29V215.728C368.545 214.318 368.298 212.903 367.994 212.584C367.692 212.263 362.266 212.938 355.937 214.083C349.608 215.228 343.345 216.17 342.019 216.175L339.607 216.185V213.173C339.607 211.516 342.501 202.596 346.038 193.351C349.575 184.108 352.468 175.836 352.468 174.969C352.468 174.103 351.378 173.106 350.046 172.753C348.714 172.399 346.757 170.56 345.698 168.665L343.773 165.221H340.082H336.392L336.376 167.77C336.352 171.387 334.754 173.597 332.749 172.783C331.65 172.338 331.033 170.73 331.033 168.316V164.544L327.473 163.184C323.751 161.762 305.558 161.5 301.148 162.806ZM355.952 162.574C355.118 162.929 354.612 165.396 354.612 169.103C354.612 175.53 352.978 181.174 346.144 198.342C341.302 210.506 340.995 211.891 343.358 210.933C345.258 210.163 345.486 211.786 343.739 213.632C342.884 214.535 344.429 214.462 348.83 213.39C352.305 212.544 357.942 211.491 361.357 211.051C365.238 210.55 367.41 209.77 367.15 208.97C366.733 207.687 359.887 207.664 350.593 208.916C347.645 209.312 346.038 209.09 346.038 208.285C346.038 207.6 348.893 201.071 352.382 193.775C359.341 179.226 360.575 174.559 359.49 166.912C358.769 161.839 358.488 161.493 355.952 162.574ZM292.717 164.938C289.807 165.963 292.105 174.282 295.298 174.282H296.998L295.664 172.583L294.33 170.884L295.646 169.209L296.961 167.534L298.992 168.682C301.544 170.125 301.647 168.411 299.147 166.114C297.284 164.4 295.281 164.035 292.717 164.938ZM333.425 167.486C333.425 169.667 333.646 170.559 333.915 169.468C334.185 168.378 334.185 166.595 333.915 165.505C333.646 164.414 333.425 165.306 333.425 167.486ZM346.682 165.037C345.873 166.42 349.11 170.884 350.922 170.884C351.926 170.884 352.468 169.693 352.468 167.486V164.089H349.852C348.413 164.089 346.986 164.516 346.682 165.037ZM175.625 166.354C175.625 166.977 176.399 167.486 177.347 167.486C178.453 167.486 178.837 168.095 178.419 169.185C178.061 170.12 177.476 171.649 177.118 172.583C176.76 173.517 177.001 174.282 177.653 174.282C178.306 174.282 178.843 173.645 178.846 172.866C178.851 172.088 179.545 170.048 180.391 168.336L181.928 165.221H178.777C177.043 165.221 175.625 165.731 175.625 166.354ZM286.525 168.979C286.92 170.338 287.511 175.091 287.837 179.543C288.897 194.03 284.559 206.358 275.116 215.692C269.48 221.261 269.141 221.848 271.549 221.848C272.433 221.848 274.121 222.867 275.3 224.113L277.444 226.378H282.549H287.654L288.711 223.83C289.293 222.428 292.395 219.883 295.603 218.175C302.908 214.285 304.186 213.021 302.153 211.693C301.31 211.143 300.514 209.253 300.383 207.493C300.035 202.817 293.562 177.62 291.807 174.107C290.982 172.454 290.305 170.347 290.305 169.425C290.305 168.505 289.292 167.471 288.056 167.129L285.806 166.508L286.525 168.979ZM58.1135 168.877C57.719 169.551 57.8916 169.779 58.4961 169.383C59.1006 168.989 60.6965 169.675 62.0415 170.908C64.6202 173.271 67.3747 173.879 67.3747 172.083C67.3747 169.761 59.2431 166.946 58.1135 168.877ZM89.4427 170.593C89.0954 170.961 88.8103 173.725 88.8103 176.736V182.209H101.136C113.323 182.209 116.237 181.225 110.514 179.042C108.893 178.423 103.631 176.119 98.8208 173.922C94.0106 171.723 89.791 170.226 89.4427 170.593ZM50.5242 172.3C47.9541 175.812 47.9873 176.872 50.5896 174.368C52.1576 172.857 53.4416 171.456 53.4416 171.253C53.4416 170.317 51.4534 171.03 50.5242 172.3ZM213.807 174.423C213.438 176.37 213.137 179.148 213.137 180.598V183.234L219.836 183.636L226.534 184.038L219.69 184.256L212.845 184.474L213.531 189.765C213.91 192.674 214.463 195.314 214.763 195.63C215.062 195.947 221.184 193.693 228.366 190.623L241.423 185.041L235.051 184.382L228.678 183.723L234.84 183.532C238.231 183.428 240.996 182.959 240.986 182.493C240.967 181.573 217.666 170.883 215.682 170.884C215.019 170.884 214.175 172.476 213.807 174.423ZM263.243 176.362C255.325 179.955 251.721 182.168 251.721 183.437C251.721 184.696 254.811 186.638 261.427 189.536C266.765 191.873 270.934 193.997 270.691 194.253C270.447 194.51 266.278 192.924 261.426 190.729C256.573 188.536 252.076 186.74 251.432 186.74C250.789 186.74 254.449 191.261 259.565 196.786C264.683 202.312 268.853 207.281 268.835 207.828C268.816 208.377 264.508 204.11 259.262 198.348C254.017 192.586 249.472 187.872 249.164 187.872C248.629 187.872 250.904 194.661 255.976 208.199C259.097 216.529 258.961 216.39 262.232 214.574C267.143 211.844 277.763 198.908 276.191 197.569C275.996 197.402 274.872 196.674 273.693 195.952L271.549 194.637L274.419 195.321L277.289 196.005L278.432 191.655C280.165 185.062 279.974 184.641 275.032 184.171L270.477 183.737L275.155 183.54L279.831 183.342L279.069 177.962C278.189 171.75 277.791 170.838 276.041 171.01C275.339 171.079 269.58 173.488 263.243 176.362ZM55.0492 174.103C52.0826 176.019 47.2649 181.128 49.6903 179.786C50.2798 179.46 52.5048 178.352 54.6334 177.325C56.763 176.296 59.1134 174.683 59.8562 173.736L61.2066 172.017L59.7351 172.021C58.9269 172.023 56.8177 172.96 55.0492 174.103ZM164.021 176.309C162.321 176.594 161.724 177.268 162.146 178.428C162.486 179.365 162.763 180.666 162.763 181.323C162.763 181.978 163.783 181.145 165.029 179.471C167.597 176.021 167.503 175.725 164.021 176.309ZM309.296 177.396L309.998 179.378L308.19 177.824L306.382 176.269V178.739C306.382 180.968 307.678 191.519 309.139 201.179C309.481 203.455 310.314 204.86 311.32 204.86H312.944L312.385 200.047C312.077 197.399 311.53 191.472 311.168 186.874L310.511 178.516L313.538 179.239C315.202 179.636 319.641 180.517 323.402 181.197L330.24 182.433L331.156 180.905C331.66 180.066 332.079 179.073 332.089 178.701C332.106 177.957 316.167 175.411 311.506 175.413L308.593 175.414L309.296 177.396ZM154.189 178.745C154.189 179.955 154.671 181.258 155.261 181.643C155.868 182.041 156.333 181.088 156.333 179.445C156.333 177.851 155.85 176.547 155.261 176.547C154.671 176.547 154.189 177.535 154.189 178.745ZM166.994 179.442L164.419 182.337V186.797C164.419 189.9 165.147 192.026 166.807 193.781C168.12 195.168 169.194 195.68 169.194 194.919C169.194 194.158 168.789 193.535 168.295 193.535C167.8 193.535 166.845 192.261 166.174 190.703L164.953 187.872H167.073C168.24 187.872 169.194 187.362 169.194 186.74C169.194 186.117 168.47 185.607 167.586 185.607C165.528 185.607 165.497 181.777 167.539 179.985C169.872 177.94 171.645 179.736 170.944 183.437L170.335 186.655L172.382 184.802L174.43 182.95L173.308 180.737L172.188 178.524L173.639 177.552L175.089 176.582L172.328 176.564C170.737 176.554 168.477 177.773 166.994 179.442ZM178.095 177.805L180.031 178.994L178.747 180.63C177.117 182.705 178.305 184.088 180.253 182.38C182.157 180.71 183.127 181.831 183.127 185.703C183.127 189.887 182.121 192.402 180.448 192.402C178.924 192.402 177.768 189.95 177.768 186.714C177.768 185.556 177.406 184.371 176.964 184.083C175.734 183.279 176.178 189.263 177.55 191.972C178.95 194.735 178.328 195.764 175.178 195.889C173.932 195.939 173.561 196.239 174.34 196.569C176.644 197.545 181.695 194.705 182.988 191.706C184.984 187.076 184.444 182.366 181.568 179.327C180.121 177.798 178.313 176.563 177.548 176.581C176.738 176.601 176.965 177.111 178.095 177.805ZM127.818 178.619L129.849 179.042L128.354 180.042C127.387 180.688 129.035 181.049 133.021 181.06L139.184 181.077V179.431V177.787L132.485 177.992C128.802 178.104 126.701 178.386 127.818 178.619ZM119.323 182.266C118.305 184.008 119.699 185.131 121.075 183.677C121.845 182.864 121.863 182.231 121.131 181.753C120.531 181.361 119.717 181.592 119.323 182.266ZM167.586 182.209C167.222 182.832 167.704 183.342 168.658 183.342C169.612 183.342 170.094 182.832 169.73 182.209C169.365 181.587 168.883 181.077 168.658 181.077C168.433 181.077 167.951 181.587 167.586 182.209ZM313.032 189.854C313.503 194.681 314.082 202.708 314.317 207.691C314.553 212.675 315.095 218.917 315.524 221.565L316.302 226.378H323.209H330.116L327.896 223.394C324.977 219.473 325.059 214.731 328.329 198.421C329.789 191.136 330.763 184.945 330.494 184.66C330.041 184.182 315.835 181.272 313.298 181.137C312.537 181.096 312.451 183.909 313.032 189.854ZM124.179 183.138C125.063 183.715 130.61 184.518 136.505 184.921C142.399 185.325 150.477 185.965 154.457 186.344C159 186.776 161.691 186.61 161.691 185.899C161.691 184.759 154.554 183.951 133.825 182.745C126.745 182.333 123.167 182.479 124.179 183.138ZM88.8103 188.938C88.8103 192.016 89.1726 194.752 89.6142 195.021C90.7524 195.709 113.461 185.53 113.461 184.332C113.461 183.787 107.915 183.342 101.136 183.342H88.8103V188.938ZM254.668 184.142C255.995 184.411 258.165 184.411 259.491 184.142C260.818 183.871 259.733 183.65 257.08 183.65C254.427 183.65 253.342 183.871 254.668 184.142ZM126.591 186.747C125.264 187.326 124.179 188.101 124.179 188.469C124.179 188.837 124.628 188.845 125.177 188.487C125.726 188.128 126.438 188.287 126.761 188.837C127.543 190.176 135.359 191.446 137.492 190.581C140.336 189.427 139.463 186.741 136.237 186.724C134.616 186.716 132.325 186.48 131.146 186.203C129.967 185.924 127.917 186.169 126.591 186.747ZM173.139 186.456C172.882 186.923 171.881 190.218 170.914 193.776C169.948 197.334 168.872 201.03 168.525 201.987C168.177 202.944 168.387 203.728 168.991 203.728C169.596 203.728 171.165 200.288 172.479 196.083C173.792 191.878 175.089 187.802 175.36 187.023C175.885 185.518 173.931 185.019 173.139 186.456ZM104.887 190.104C101.055 191.863 96.0877 194.104 93.8466 195.084L89.7728 196.866L91.0193 199.328C93.9528 205.118 106.336 216.833 107.433 214.854C107.545 214.652 108.482 212.703 109.515 210.523C110.549 208.343 111.134 207.498 110.816 208.646C110.498 209.793 109.957 211.912 109.615 213.353L108.993 215.971L110.959 216.56C112.04 216.884 114.493 217.482 116.409 217.89L119.892 218.631V204.383C119.892 196.548 119.475 190.137 118.966 190.137C118.457 190.137 117.2 192.461 116.173 195.303C115.146 198.143 114.096 200.245 113.839 199.974C113.581 199.703 114.168 197.379 115.14 194.811C117.118 189.587 116.62 186.699 113.762 186.822C112.713 186.869 108.719 188.345 104.887 190.104ZM131.537 188.483C133.52 189.393 135.449 190.119 135.824 190.098C137.218 190.015 131.082 186.82 129.538 186.824C128.654 186.827 129.553 187.573 131.537 188.483ZM227.335 192.227L215.275 197.612L218.592 203.139L221.908 208.665L231.428 198.552C240.356 189.066 242.144 186.668 240.199 186.789C239.757 186.818 233.968 189.264 227.335 192.227ZM105.935 197.782L96.8487 207.691L106.227 198.09C114.937 189.172 116.094 187.872 115.313 187.872C115.153 187.872 110.933 192.332 105.935 197.782ZM153.82 190.37C153.112 193.237 153.55 194.085 155.189 193.015C156.565 192.117 156.727 187.872 155.386 187.872C154.865 187.872 154.161 188.997 153.82 190.37ZM233.026 198C227.53 203.835 223.785 208.694 224.106 209.573C224.41 210.407 226.568 212.222 228.904 213.606L233.149 216.122L238.27 202.503C241.087 195.014 243.191 188.673 242.945 188.415C242.7 188.155 238.236 192.469 233.026 198ZM161.387 192.052C160.702 195.822 160.872 196.098 163.572 195.608L165.638 195.234L163.802 192.052L161.966 188.871L161.387 192.052ZM167.734 190.703C168.074 191.638 168.541 192.402 168.773 192.402C169.004 192.402 169.194 191.638 169.194 190.703C169.194 189.769 168.727 189.005 168.155 189.005C167.585 189.005 167.395 189.769 167.734 190.703ZM239.664 202.092C236.863 209.601 234.573 216.057 234.573 216.44C234.573 217.163 244.49 219.675 245.041 219.092C245.213 218.909 245.22 211.937 245.055 203.6L244.754 188.438L239.664 202.092ZM246.362 204.118V219.686L250.381 218.907C252.592 218.479 255.191 217.819 256.159 217.44L257.918 216.752L253.153 203.728C250.532 196.564 247.932 190.219 247.375 189.628C246.738 188.951 246.362 194.337 246.362 204.118ZM120.964 204.383V218.631L124.447 217.89C131.134 216.467 131.864 216.056 131.172 214.102C125.31 197.517 122.426 190.177 121.768 190.159C121.326 190.147 120.964 196.548 120.964 204.383ZM124.179 190.93C124.179 192.244 131.931 213.28 132.794 214.309C133.235 214.833 134.612 214.688 135.854 213.985L138.112 212.709V207.824V202.939L131.761 196.538C125.597 190.326 124.179 189.276 124.179 190.93ZM19.1446 194.667V198.065H38.4366H57.7287V194.667V191.27H38.4366H19.1446V194.667ZM130.61 193.048C131.494 194.241 133.541 196.751 135.16 198.623L138.103 202.029L138.107 197.215L138.112 192.402L136.237 192.386C135.205 192.378 133.155 192.035 131.682 191.624L129.002 190.877L130.61 193.048ZM157.419 203.695C155.642 207.415 154.189 211.462 154.189 212.688C154.189 213.916 153.79 215.18 153.302 215.499C152.814 215.817 152.923 218.395 153.546 221.229L154.677 226.378H163.542H172.409V222.573C172.409 220.479 172.103 216.402 171.728 213.513L171.046 208.258H167.019C164.553 208.258 162.769 207.642 162.416 206.67C161.699 204.696 162.554 203.728 165.013 203.728C167.018 203.728 168.718 200 167.593 198.075C167.225 197.447 165.512 196.932 163.787 196.932H160.651L157.419 203.695ZM20.4189 201.179L20.7801 203.161L38.7185 203.472L56.6569 203.782V201.49V199.197H38.3584H20.0588L20.4189 201.179ZM111.987 203.205C110.952 206.053 111.257 206.788 112.52 204.492C113.146 203.355 113.432 202.186 113.156 201.895C112.88 201.603 112.353 202.193 111.987 203.205ZM383.55 202.891C383.55 203.054 385.711 208.532 388.352 215.065C390.994 221.599 393.164 226.041 393.175 224.938C393.204 222.189 385.542 202.595 384.438 202.595C383.95 202.595 383.55 202.728 383.55 202.891ZM20.4843 206.276L20.9312 207.691H38.4366H55.942L56.389 206.276L56.8359 204.86H38.4366H20.0374L20.4843 206.276ZM369.126 210.24C370.155 216.683 370.738 218.451 371.832 218.451C373.143 218.451 373.115 212.589 371.787 208.898C370.161 204.381 368.337 205.301 369.126 210.24ZM302.095 208.824C302.095 210.672 303.698 210.873 309.865 209.796C315.859 208.749 314.718 207.125 307.99 207.125H302.095V208.824ZM373.461 211.372C374.363 216.638 374.538 216.847 376.558 215.076C379.477 212.515 377.863 207.125 374.177 207.125H372.735L373.461 211.372ZM21.2881 210.941C21.2881 212.885 26.7832 213.892 37.4827 213.908C48.8554 213.925 55.5851 212.821 55.5851 210.935V209.39H38.4366H21.2881V210.941ZM308.191 211.445C303.53 211.85 303.343 213.886 307.815 215.557C310.951 216.728 313.288 215.309 312.645 212.625C312.396 211.585 310.956 211.205 308.191 211.445ZM22.3256 219.387C22.7383 221.771 23.4253 224.319 23.8529 225.05C24.3824 225.955 29.0318 226.378 38.4366 226.378C47.8415 226.378 52.4909 225.955 53.0204 225.05C53.448 224.319 54.135 221.771 54.5476 219.387L55.2968 215.053H38.4366H21.5764L22.3256 219.387ZM182.055 217.291C181.171 217.825 178.88 218.877 176.964 219.627C175.049 220.377 173.481 221.438 173.481 221.985C173.481 223.472 180.195 223.118 182.122 221.529C183.964 220.011 185.656 216.146 184.434 216.252C184.009 216.288 182.94 216.756 182.055 217.291ZM374.356 218.426C373.781 219.034 371.634 219.789 369.587 220.103C367.541 220.417 361.525 221.926 356.22 223.457L346.574 226.24L366.402 226.281L386.23 226.322L381.716 221.82C376.948 217.064 376.041 216.645 374.356 218.426ZM150.336 219.408C150.828 220.251 150.22 220.721 148.625 220.733L146.151 220.751L147.758 221.848C148.643 222.452 149.969 222.953 150.706 222.964C152.389 222.985 152.466 219.991 150.808 218.909C150.041 218.407 149.861 218.598 150.336 219.408ZM257.998 222.856L259.453 223.83L258.164 224.672C257.454 225.135 254.148 225.198 250.814 224.812C247.481 224.426 243.308 224.576 241.539 225.147L238.324 226.183L254.401 226.146L270.477 226.109L265.313 224.811C262.473 224.097 260.503 223.138 260.936 222.681C261.37 222.223 260.559 221.856 259.135 221.865L256.544 221.883L257.998 222.856ZM133.825 225.246L131.146 226.153L134.093 226.265C135.714 226.327 137.04 225.869 137.04 225.246C137.04 224.623 136.919 224.164 136.773 224.226C136.626 224.289 135.299 224.747 133.825 225.246ZM299.951 225.246L288.698 225.935L301.827 226.156C310.005 226.294 314.956 225.951 314.956 225.246C314.956 224.623 314.112 224.213 313.081 224.335C312.049 224.456 306.141 224.866 299.951 225.246ZM141.596 226.07C143.807 226.315 147.424 226.315 149.634 226.07C151.845 225.827 150.036 225.626 145.615 225.626C141.194 225.626 139.386 225.827 141.596 226.07ZM179.644 226.084C183.329 226.306 189.357 226.306 193.041 226.084C196.726 225.863 193.711 225.682 186.342 225.682C178.974 225.682 175.96 225.863 179.644 226.084Z" fill="#EF233C"/>
<path d="M185.27 32.4238C185.786 32.6211 186.813 33.416 187.787 33.8503C188.597 34.2114 189.145 34.4818 189.468 34.68C189.662 35.0097 189.856 35.4102 190.114 35.8076C190.244 36.0078 190.372 36.2051 190.504 36.6075" stroke="#FEFEFE" stroke-width="5" stroke-linecap="round"/>
<path d="M197.985 20.918C197.985 21.0435 197.985 21.5788 198.029 22.3076C198.06 22.8149 198.613 22.851 198.748 22.9613C199.068 23.2233 198.704 23.8313 198.629 24.2445C198.564 24.6044 198.225 24.9723 197.971 25.3855C197.707 25.8134 197.506 26.2408 197.326 26.6373C197.099 27.1361 196.908 27.8857 196.324 29.4698C196.188 29.7912 196.099 29.9167 196.008 30.0284C195.918 30.1401 195.829 30.2343 195.737 30.3313" stroke="#FEFEFE" stroke-width="3" stroke-linecap="round"/>
<path d="M192.597 32.424C192.78 31.749 193.087 30.4809 193.41 28.5801C193.934 25.496 193.427 25.0812 193.336 24.6317C193.305 24.5224 193.274 24.4304 193.259 24.3369C193.243 24.2435 193.243 24.1515 193.243 24.0566" stroke="#FEFEFE" stroke-width="3" stroke-linecap="round"/>
<path d="M192.597 23.0098C192.079 22.9075 191.284 22.5976 190.778 22.4551C190.329 22.3288 189.936 22.0553 189.492 21.8612C189.109 21.7191 188.682 21.513 187.887 21.1132C187.701 21.0218 187.58 20.9707 187.364 20.918" stroke="#FEFEFE" stroke-width="3" stroke-linecap="round"/>
<path d="M309.561 100.179C309.346 99.9097 309.273 99.5476 309.183 99.333C308.953 98.7878 309.195 99.329 309.561 100.179C310.086 101.401 310.868 103.259 310.877 103.455C310.88 103.53 310.722 103.546 310.608 103.546C309.283 103.551 307.306 102.162 306.864 101.847C306.747 101.764 306.679 101.622 306.636 101.516C306.494 101.17 306.819 100.779 306.834 100.343C306.841 100.142 306.707 98.8034 306.551 96.5645C306.376 94.0592 305.825 93.7359 305.54 93.3594C305.458 93.2509 305.342 93.1346 305.256 93.1179C305.169 93.1012 305.113 93.1905 305.112 93.3856C305.108 94.2831 305.282 94.6949 305.353 95.4462C305.459 96.5566 305.653 96.8331 305.61 96.9988C305.595 97.0611 305.484 97.0155 305.398 96.9704C304.992 96.7572 304.8 96.0241 304.586 95.2877C304.249 94.13 303.776 93.6745 303.476 93.2551C302.842 92.3659 302.892 91.7494 302.749 91.3878C302.592 90.9902 302.238 90.5755 301.754 90.1236C301.658 90.0334 301.555 90.0916 301.511 90.1665C301.295 90.5384 301.666 91.083 301.696 91.5359C301.717 91.8534 301.213 90.9367 301.112 90.4252C301.07 90.2142 300.985 90.0329 300.899 89.9421C300.659 89.6869 301.154 90.9024 301.198 91.4302C301.203 91.4913 301.126 91.1471 301.098 90.981C301.075 90.8475 300.956 91.3846 300.927 91.581C300.866 92.0055 300.558 90.8464 300.458 90.3805C300.271 89.512 300.67 89.1308 300.926 88.8893C301.028 88.0886 301.017 87.1141 300.993 86.8677C300.987 86.84 300.984 86.8202 300.984 86.8115C300.987 86.8182 300.99 86.8375 300.993 86.8677C301.017 87.1141 301.028 88.0886 300.926 88.8893C300.67 89.1308 300.271 89.512 300.458 90.3805C300.558 90.8464 300.866 92.0055 300.927 91.581C300.956 91.3846 301.075 90.8475 301.098 90.981C301.126 91.1471 301.203 91.4913 301.198 91.4302C301.154 90.9024 300.659 89.6869 300.899 89.9421C300.985 90.0329 301.07 90.2142 301.112 90.4252C301.213 90.9367 301.717 91.8534 301.696 91.5359C301.666 91.083 301.295 90.5384 301.511 90.1665C301.555 90.0916 301.658 90.0334 301.754 90.1236C302.238 90.5755 302.592 90.9902 302.749 91.3878C302.892 91.7494 302.842 92.3659 303.476 93.2551C303.776 93.6745 304.249 94.13 304.586 95.2877C304.8 96.0241 304.992 96.7572 305.398 96.9704C305.484 97.0155 305.595 97.0611 305.61 96.9988C305.653 96.8331 305.459 96.5566 305.353 95.4462C305.282 94.6949 305.108 94.2831 305.112 93.3856C305.113 93.1905 305.169 93.1012 305.256 93.1179C305.342 93.1346 305.458 93.2509 305.54 93.3594C305.825 93.7359 306.376 94.0592 306.551 96.5645C306.707 98.8034 306.841 100.142 306.834 100.343C306.819 100.779 306.494 101.17 306.636 101.516C306.679 101.622 306.747 101.764 306.864 101.847C307.306 102.162 309.283 103.551 310.608 103.546C310.722 103.546 310.88 103.53 310.877 103.455C310.868 103.259 310.086 101.401 309.561 100.179Z" fill="#EF233C"/>
<path d="M310.777 100.868C310.27 100.629 309.924 100.477 309.767 100.372C309.384 100.115 309.298 99.6052 309.183 99.333C308.623 98.0049 310.862 103.123 310.877 103.455C310.88 103.53 310.722 103.546 310.608 103.546C309.283 103.551 307.306 102.162 306.864 101.847C306.747 101.764 306.679 101.622 306.636 101.516C306.494 101.17 306.819 100.779 306.834 100.343C306.841 100.142 306.707 98.8034 306.551 96.5645C306.376 94.0592 305.825 93.7359 305.54 93.3594C305.458 93.2509 305.342 93.1346 305.256 93.1179C305.169 93.1012 305.113 93.1905 305.112 93.3856C305.108 94.2831 305.282 94.6949 305.353 95.4462C305.459 96.5566 305.653 96.8331 305.61 96.9988C305.595 97.0611 305.484 97.0155 305.398 96.9704C304.992 96.7572 304.8 96.0241 304.586 95.2877C304.249 94.13 303.776 93.6745 303.476 93.2551C302.842 92.3659 302.892 91.7494 302.749 91.3878C302.592 90.9902 302.238 90.5755 301.754 90.1236C301.658 90.0334 301.555 90.0916 301.511 90.1665C301.295 90.5384 301.666 91.083 301.696 91.5359C301.717 91.8534 301.213 90.9367 301.112 90.4252C301.07 90.2142 300.985 90.0329 300.899 89.9421C300.659 89.6869 301.154 90.9024 301.198 91.4302C301.203 91.4913 301.126 91.1471 301.098 90.981C301.075 90.8475 300.956 91.3846 300.927 91.581C300.866 92.0055 300.558 90.8464 300.458 90.3805C300.271 89.512 300.67 89.1308 300.926 88.8893C301.041 87.9903 301.013 86.8725 300.984 86.8115C300.984 86.84 301.012 86.989 301.126 87.1425" stroke="#FEFEFE" stroke-width="3" stroke-linecap="round"/>
<path d="M306.69 89.9493C307.059 89.6459 307.702 89.2956 307.871 89.2308C308.227 89.094 308.511 88.6863 309.169 88.2732C309.323 88.1634 309.423 88.0771 309.525 88.011C309.627 87.945 309.727 87.9019 309.83 87.8574" stroke="#FEFEFE" stroke-width="3" stroke-linecap="round"/>
</svg>
