<svg width="511" height="282" viewBox="0 0 511 282" fill="none" xmlns="http://www.w3.org/2000/svg">
<path d="M415.915 253.767C413.823 252.876 411.731 251.985 402.138 250.487C392.544 248.988 375.512 246.909 365.244 245.838C347.198 243.956 340.488 245.667 333.094 246.859C320.034 248.966 305.192 252.561 291.646 254.51C284.212 255.579 271 255.261 264.676 255.86C258.351 256.458 259.247 257.35 261.651 258.403C264.055 259.456 267.94 260.644 282.64 262.741C297.341 264.838 322.74 267.808 338.663 269.338C360.218 271.41 369.101 270.274 374.226 269.374C377.521 268.796 380.583 268.771 384.345 268.321C386.306 268.087 388.406 268.168 377.531 267.574C366.656 266.98 342.751 265.792 328.494 264.735C304.747 262.973 300.03 260.68 296.105 259.321C294.954 258.922 293.402 259.168 291.736 258.871C288.219 258.244 303.761 259.447 333.905 262.597C354.402 264.739 368.467 262.183 378.269 259.487C387.58 256.926 394.455 254.073 398.697 253.169C399.587 252.979 400.503 253.461 400.069 253.911C399.634 254.361 397.841 254.955 384.816 256.004C371.79 257.053 347.587 258.538 334.222 259.154C315.435 260.021 309.991 256.179 303.96 255.27C298.009 254.373 290.994 251.679 276.374 248.529C271.589 247.498 268.936 246.27 267.872 245.82C266.37 245.184 282.391 248.934 304.676 254.775C315.536 257.622 325.764 259.132 334.136 260.05C356.613 262.515 362.763 259.474 378.885 258.871C380.835 258.798 367.743 254.397 348.587 249.749C335.478 246.567 322.74 246.567 311.521 249.551C295.295 253.866 277.466 256.467 276.135 256.765C268.681 258.428 308.27 257.656 321.49 258.11C339.593 258.732 347.369 260.968 352.662 262.61C355.483 263.486 358.253 263.668 359.317 263.074C361.427 261.896 351.073 258.583 339.492 255.59C325.376 251.942 316.021 251.067 315.107 251.067C309.659 251.067 327.738 253.461 336.802 255.41C346.294 257.45 356.134 257.062 361.563 258.263C363.073 258.597 364.574 258.862 363.849 259.015C363.125 259.168 360.137 259.168 348.139 257.237C336.141 255.306 315.224 251.445 303.403 249.456C291.582 247.467 289.49 247.467 288.712 247.912C284.345 250.411 299.668 259.438 312.784 266.044C324.874 272.134 328.979 271.165 329.59 271.764C330.928 273.074 313.721 272.669 293.361 272.371C282.825 272.218 279.195 270.571 278.733 269.973C277.329 268.153 293.864 269.365 311.96 270.112C321.738 270.516 325.954 271.768 326.127 271.471C328.91 266.667 305.554 269.968 288.06 269.82C278.922 269.742 273.481 269.068 269.85 268.92C255.746 268.343 308.741 274.469 311.63 275.364C322.067 278.6 281.323 272.074 272.282 270.126C264.185 268.381 259.283 267.574 256.255 266.076C255.647 265.775 256.241 264.586 256.843 263.83C258.098 262.254 260.162 261.571 261.968 261.566C266.877 261.554 267.704 269.95 269.973 275.049C270.499 276.232 270.729 277.151 271.032 278.055C271.335 278.96 271.634 279.851 271.788 277.488C272.309 269.498 272.839 263.371 274.645 262.624C275.583 262.236 276.451 261.58 276.764 260.828C277.076 260.077 276.777 259.186 276.026 258.578C274.359 257.23 271.055 257.368 268.039 257.813C265.801 258.144 265.006 260.959 263.652 262.457C263.003 263.176 262 263.362 264.526 263.515C280.353 264.473 285.796 262.768 291.691 261.125C296.482 259.79 301.787 257.08 308.592 254.078C312.932 252.163 317.796 250.473 324.886 248.673C330.052 247.361 337.988 247.467 344.363 248.511C345.641 248.72 346.772 249.555 347.537 250.307C348.302 251.058 348.601 251.949 347.858 252.705C343.528 257.115 335.96 254.073 330.817 253.47C325.41 252.836 320.857 250.473 315.881 249.42C314.249 249.075 312.128 249.267 311.05 249.861C309.973 250.455 309.973 251.643 310.421 252.404C312.305 255.601 319.589 256.161 326.702 256.319C332.333 256.444 338.034 255.27 338.794 254.523C342.111 251.265 319.444 251.085 311.037 250.613C309.509 250.527 314.482 253.461 319.888 255.995C329.3 260.406 341.891 267.538 353.658 272.335C358.965 274.499 362.763 275.369 368.784 274.478C371.913 274.015 374.806 271.804 376.793 270.589C378.781 269.374 379.677 268.78 377.898 268.474C360.985 265.565 345.613 271.462 338.672 271.471C337.117 271.473 336.25 270.58 336.236 270.423C336.223 270.265 337.119 270.562 347.741 270.715C358.362 270.868 378.681 270.868 385.862 268.938C393.042 267.007 386.468 263.146 382.484 261.008C374.471 256.709 369.744 253.776 368.834 252.129C368.468 251.466 369.717 250.779 371.374 250.473C383.681 248.2 397.787 254.361 403.211 255.414C405.287 255.818 408.309 255.567 409.4 255.864C410.491 256.161 409.594 256.756 407.937 257.062C400.045 258.519 393.314 258.862 385.757 259.019C384.225 259.051 383.335 258.574 384.069 258.421C390.708 257.036 407.023 266.89 415.91 272.66C416.418 272.989 415.027 273.857 405.004 271.489C375.657 264.559 358.543 258.565 365.452 260.203C385.316 264.913 389.637 267.862 394.763 268.915C396.542 269.281 398.964 269.068 400.195 267.732C401.427 266.395 401.427 263.722 400.53 261.899C399.634 260.077 397.841 259.186 396.32 258.875C394.799 258.565 393.604 258.862 392.988 260.5C389.972 268.523 393.576 272.056 394.477 274.154C394.907 275.155 395.976 275.657 396.886 275.666C400.821 275.705 402.025 270.877 402.781 269.082C403.48 267.42 401.735 265.477 400.232 263.83C399.437 262.959 398.131 262.48 397.067 262.322C396.003 262.165 395.107 262.462 394.495 263.06C393.246 264.283 393.278 267.547 393.726 270.252C393.851 271.01 395.07 269.986 395.532 268.785C395.994 267.583 395.994 266.098 395.695 265.927C392.319 263.995 392.082 273.551 388.764 276.111C387.217 277.305 385.137 277.763 383.63 278.217C379.424 279.485 384.82 266.098 388.732 261.431C390.417 259.42 394.165 260.068 397.031 260.513C398.18 260.692 398.403 261.85 398.258 262.754C397.598 266.872 390.289 267.862 381.692 270.558C374.189 272.91 369.753 272.669 367.485 272.52C361.03 272.097 386.613 272.362 391.598 272.817C394.478 273.08 398.982 273.569 402.763 273.569C406.212 273.569 392.716 272.074 380.497 271.471C372.162 269.968 368.838 269.671 367.032 269.073C366.122 268.771 365.225 268.474 364.302 268.168" stroke="#FEFEFE" stroke-width="5" stroke-linecap="round"/>
<path d="M263.935 270.416C263.336 270.416 262.736 270.416 250.735 270.568C238.733 270.721 215.348 271.026 202.852 271.031C187.004 271.037 177.99 269.491 170.686 268.723C162.212 267.833 156.15 266.717 150.544 265.181C145.916 263.914 135.617 263.017 128.581 264.858C126.471 265.409 124.942 267.632 123.58 269.63C122.918 270.599 123.116 271.933 123.566 272.409C125.787 274.761 138.761 271.341 146.724 272.261C150.535 272.701 153.987 274.725 161.074 275.807C182.224 279.037 186.394 274.735 199.608 274.272C211.318 273.863 233.209 274.115 244.934 273.962C257.564 273.798 259.683 272.885 261.051 272.117C264.31 270.288 250.653 268.881 245.029 267.646C243.377 267.283 240.968 267.031 232.087 266.874C207.92 266.446 191.264 267.022 189.151 267.484C183.799 268.656 174.065 268.566 166.293 269.486C159.112 270.337 152.534 272.561 130.316 273.038C125.849 273.133 124.951 272.58 138.879 272.88C152.806 273.181 181.588 274.097 193.717 273.958C200.579 273.879 179.898 269.204 156.436 265.662C142.377 263.54 133.455 260.872 129.63 259.17C129.196 258.977 130.966 258.097 142.826 257.63C154.687 257.163 177.173 256.858 190.405 257.006C206.951 257.191 213.331 258.393 216.525 258.241C216.771 258.229 214.022 257.783 199.29 257.931C184.559 258.079 157.876 258.689 145.329 258.851C132.783 259.013 135.181 258.708 143.013 258.703C150.844 258.698 164.036 259.004 170.381 259.313C176.727 259.623 175.828 259.928 169.219 260.238C150.327 261.124 136.153 261.473 132.533 261.935C127.748 262.546 123.734 261.787 121.617 260.715C120.554 260.176 120.1 258.726 120.541 258.25C120.981 257.774 122.48 258.079 135.245 259.457C148.009 260.835 171.994 263.276 184.949 264.687C199.123 266.23 201.539 266.717 202.756 266.717C203.937 266.717 199.44 266.106 193.43 264.571C179.31 260.964 162.555 261.168 151.957 261.625C142.578 262.031 132.21 264.552 130.698 265.935C129.972 266.598 129.785 267.623 130.38 268.095C134.011 270.972 139.142 269.491 147.31 270.259C154.865 270.969 162.146 268.881 166.711 266.878C168.516 266.087 174.247 264.571 182.565 262.569C188.131 261.229 198.741 260.862 213.408 260.095C229.46 259.255 234.845 257.783 239.687 256.701C245.631 255.373 249.381 255.008 253.328 254.847C259.093 254.61 237.334 255.008 215.253 254.541C213.28 254.5 224.769 253.769 241.409 254.074C258.214 254.383 268.441 256.84 277.99 257.621C279.096 257.712 277.89 258.079 267.528 258.236C257.167 258.393 237.679 258.393 228.24 258.393C218.8 258.393 220 258.393 221.817 258.546C226.042 258.901 230.902 259.318 240.682 260.234C260.456 262.085 274.819 265.477 278.144 266.402C279.646 266.82 280.87 266.717 266.197 266.869C251.525 267.022 220.945 267.327 217.933 268.095C214.921 268.862 240.405 270.083 252.333 270.559C264.262 271.035 261.864 270.73 252.833 268.284C228.124 261.591 214.249 257.154 218.328 258.231C225.021 259.999 230.593 259.928 251.897 260.548C255.479 260.652 254.269 261.464 243.307 261.778C232.346 262.092 211.66 262.092 201.602 262.092C191.545 262.092 192.744 262.092 196.81 262.703C216.844 265.711 225.723 269.177 233.169 270.259C235.418 270.585 238.733 270.416 239.832 270.416C240.932 270.416 239.732 270.416 226.523 269.653C213.313 268.89 188.129 267.364 174.256 266.73C149.86 265.616 134.037 266.106 130.83 265.792C109.324 263.683 169.432 269.177 176.096 269.491C177.852 269.574 166.18 268.27 149.899 265.81C109.745 259.743 106.173 261.168 106 261.625C117.647 264.858 126.096 267.327 131.579 268.562C132.792 268.871 134.291 269.177 135.835 269.491" stroke="#FEFEFE" stroke-width="5" stroke-linecap="round"/>
<path d="M49 102.618C50.2379 102.967 52.7138 104.14 54.772 105.022C57.4793 106.182 60.6708 105.788 62.3506 105.788C63.0311 105.788 57.4865 105.436 52.1228 106.663C51.2127 106.871 50.8718 107.077 50.7432 106.846C50.6145 106.616 50.7376 106.034 51.2932 105.735C55.5451 103.444 62.2854 106.961 67.1047 107.602C76.1492 108.805 82.5509 110.014 82.8081 109.782C84.4876 108.264 74.7691 108.489 68.186 108.255C63.5076 108.089 60.8274 106.732 58.5772 105.849C57.5097 105.431 56.3381 105.319 55.4078 105.201C53.6724 104.981 51.4982 106.721 49.6954 107.776C49.0485 108.154 49.2461 108.598 49.6786 108.894C50.7296 109.613 51.9792 109.778 52.7846 109.954C54.9696 110.432 57.4418 107.091 61.2283 103.511C64.9194 100.021 73.9786 102.851 74.6609 103.377C75.3431 103.903 75.4738 104.96 75.3507 106.015C75.2942 106.5 74.9816 106.837 74.6087 107.075C74.2359 107.313 73.7437 107.429 72.9979 106.966C68.6625 104.273 67.6472 100.745 67.2725 100.098C67.0948 99.7917 68.3855 100.269 69.0679 100.619C70.2499 101.91 70.9993 104.129 70.9378 106.244C70.8763 106.848 70.7532 106.499 70.6265 105.788" stroke="#FEFEFE" stroke-width="5" stroke-linecap="round"/>
<circle cx="359.5" cy="1.5" r="1.5" fill="#EF233C"/>
<circle cx="368.5" cy="1.5" r="1.5" fill="#EF233C"/>
<circle cx="377.5" cy="1.5" r="1.5" fill="#EF233C"/>
<circle cx="386.5" cy="1.5" r="1.5" fill="#EF233C"/>
<circle cx="395.5" cy="1.5" r="1.5" fill="#EF233C"/>
<circle cx="404.5" cy="1.5" r="1.5" fill="#EF233C"/>
<circle cx="413.5" cy="1.5" r="1.5" fill="#EF233C"/>
<circle cx="422.5" cy="1.5" r="1.5" fill="#EF233C"/>
<circle cx="431.5" cy="1.5" r="1.5" fill="#EF233C"/>
<circle cx="440.5" cy="1.5" r="1.5" fill="#EF233C"/>
<circle cx="449.5" cy="1.5" r="1.5" fill="#EF233C"/>
<circle cx="359.5" cy="10.5" r="1.5" fill="#EF233C"/>
<circle cx="368.5" cy="10.5" r="1.5" fill="#EF233C"/>
<circle cx="377.5" cy="10.5" r="1.5" fill="#EF233C"/>
<circle cx="386.5" cy="10.5" r="1.5" fill="#EF233C"/>
<circle cx="395.5" cy="10.5" r="1.5" fill="#EF233C"/>
<circle cx="404.5" cy="10.5" r="1.5" fill="#EF233C"/>
<circle cx="413.5" cy="10.5" r="1.5" fill="#EF233C"/>
<circle cx="422.5" cy="10.5" r="1.5" fill="#EF233C"/>
<circle cx="431.5" cy="10.5" r="1.5" fill="#EF233C"/>
<circle cx="440.5" cy="10.5" r="1.5" fill="#EF233C"/>
<circle cx="449.5" cy="10.5" r="1.5" fill="#EF233C"/>
<circle cx="359.5" cy="19.5" r="1.5" fill="#EF233C"/>
<circle cx="368.5" cy="19.5" r="1.5" fill="#EF233C"/>
<circle cx="377.5" cy="19.5" r="1.5" fill="#EF233C"/>
<circle cx="386.5" cy="19.5" r="1.5" fill="#EF233C"/>
<circle cx="395.5" cy="19.5" r="1.5" fill="#EF233C"/>
<circle cx="404.5" cy="19.5" r="1.5" fill="#EF233C"/>
<circle cx="413.5" cy="19.5" r="1.5" fill="#EF233C"/>
<circle cx="422.5" cy="19.5" r="1.5" fill="#EF233C"/>
<circle cx="431.5" cy="19.5" r="1.5" fill="#EF233C"/>
<circle cx="440.5" cy="19.5" r="1.5" fill="#EF233C"/>
<circle cx="449.5" cy="19.5" r="1.5" fill="#EF233C"/>
<circle cx="359.5" cy="28.5" r="1.5" fill="#EF233C"/>
<circle cx="368.5" cy="28.5" r="1.5" fill="#EF233C"/>
<circle cx="377.5" cy="28.5" r="1.5" fill="#EF233C"/>
<circle cx="386.5" cy="28.5" r="1.5" fill="#EF233C"/>
<circle cx="395.5" cy="28.5" r="1.5" fill="#EF233C"/>
<circle cx="404.5" cy="28.5" r="1.5" fill="#EF233C"/>
<circle cx="413.5" cy="28.5" r="1.5" fill="#EF233C"/>
<circle cx="422.5" cy="28.5" r="1.5" fill="#EF233C"/>
<circle cx="431.5" cy="28.5" r="1.5" fill="#EF233C"/>
<circle cx="440.5" cy="28.5" r="1.5" fill="#EF233C"/>
<circle cx="449.5" cy="28.5" r="1.5" fill="#EF233C"/>
<circle cx="359.5" cy="37.5" r="1.5" fill="#EF233C"/>
<circle cx="368.5" cy="37.5" r="1.5" fill="#EF233C"/>
<circle cx="377.5" cy="37.5" r="1.5" fill="#EF233C"/>
<circle cx="386.5" cy="37.5" r="1.5" fill="#EF233C"/>
<circle cx="395.5" cy="37.5" r="1.5" fill="#EF233C"/>
<circle cx="404.5" cy="37.5" r="1.5" fill="#EF233C"/>
<circle cx="413.5" cy="37.5" r="1.5" fill="#EF233C"/>
<circle cx="422.5" cy="37.5" r="1.5" fill="#EF233C"/>
<circle cx="431.5" cy="37.5" r="1.5" fill="#EF233C"/>
<circle cx="440.5" cy="37.5" r="1.5" fill="#EF233C"/>
<circle cx="449.5" cy="37.5" r="1.5" fill="#EF233C"/>
<circle cx="359.5" cy="46.5" r="1.5" fill="#EF233C"/>
<circle cx="368.5" cy="46.5" r="1.5" fill="#EF233C"/>
<circle cx="377.5" cy="46.5" r="1.5" fill="#EF233C"/>
<circle cx="386.5" cy="46.5" r="1.5" fill="#EF233C"/>
<circle cx="395.5" cy="46.5" r="1.5" fill="#EF233C"/>
<circle cx="404.5" cy="46.5" r="1.5" fill="#EF233C"/>
<circle cx="413.5" cy="46.5" r="1.5" fill="#EF233C"/>
<circle cx="422.5" cy="46.5" r="1.5" fill="#EF233C"/>
<circle cx="431.5" cy="46.5" r="1.5" fill="#EF233C"/>
<circle cx="440.5" cy="46.5" r="1.5" fill="#EF233C"/>
<circle cx="449.5" cy="46.5" r="1.5" fill="#EF233C"/>
<circle cx="359.5" cy="55.5" r="1.5" fill="#EF233C"/>
<circle cx="368.5" cy="55.5" r="1.5" fill="#EF233C"/>
<circle cx="377.5" cy="55.5" r="1.5" fill="#EF233C"/>
<circle cx="386.5" cy="55.5" r="1.5" fill="#EF233C"/>
<circle cx="395.5" cy="55.5" r="1.5" fill="#EF233C"/>
<circle cx="404.5" cy="55.5" r="1.5" fill="#EF233C"/>
<circle cx="413.5" cy="55.5" r="1.5" fill="#EF233C"/>
<circle cx="422.5" cy="55.5" r="1.5" fill="#EF233C"/>
<circle cx="431.5" cy="55.5" r="1.5" fill="#EF233C"/>
<circle cx="440.5" cy="55.5" r="1.5" fill="#EF233C"/>
<circle cx="449.5" cy="55.5" r="1.5" fill="#EF233C"/>
<circle cx="359.5" cy="64.5" r="1.5" fill="#EF233C"/>
<circle cx="368.5" cy="64.5" r="1.5" fill="#EF233C"/>
<circle cx="377.5" cy="64.5" r="1.5" fill="#EF233C"/>
<circle cx="386.5" cy="64.5" r="1.5" fill="#EF233C"/>
<circle cx="395.5" cy="64.5" r="1.5" fill="#EF233C"/>
<circle cx="404.5" cy="64.5" r="1.5" fill="#EF233C"/>
<circle cx="413.5" cy="64.5" r="1.5" fill="#EF233C"/>
<circle cx="422.5" cy="64.5" r="1.5" fill="#EF233C"/>
<circle cx="431.5" cy="64.5" r="1.5" fill="#EF233C"/>
<circle cx="440.5" cy="64.5" r="1.5" fill="#EF233C"/>
<circle cx="449.5" cy="64.5" r="1.5" fill="#EF233C"/>
<circle cx="359.5" cy="73.5" r="1.5" fill="#EF233C"/>
<circle cx="368.5" cy="73.5" r="1.5" fill="#EF233C"/>
<circle cx="377.5" cy="73.5" r="1.5" fill="#EF233C"/>
<circle cx="386.5" cy="73.5" r="1.5" fill="#EF233C"/>
<circle cx="395.5" cy="73.5" r="1.5" fill="#EF233C"/>
<circle cx="404.5" cy="73.5" r="1.5" fill="#EF233C"/>
<circle cx="413.5" cy="73.5" r="1.5" fill="#EF233C"/>
<circle cx="422.5" cy="73.5" r="1.5" fill="#EF233C"/>
<circle cx="431.5" cy="73.5" r="1.5" fill="#EF233C"/>
<circle cx="440.5" cy="73.5" r="1.5" fill="#EF233C"/>
<circle cx="449.5" cy="73.5" r="1.5" fill="#EF233C"/>
<circle cx="359.5" cy="82.5" r="1.5" fill="#EF233C"/>
<circle cx="368.5" cy="82.5" r="1.5" fill="#EF233C"/>
<circle cx="377.5" cy="82.5" r="1.5" fill="#EF233C"/>
<circle cx="386.5" cy="82.5" r="1.5" fill="#EF233C"/>
<circle cx="395.5" cy="82.5" r="1.5" fill="#EF233C"/>
<circle cx="404.5" cy="82.5" r="1.5" fill="#EF233C"/>
<circle cx="413.5" cy="82.5" r="1.5" fill="#EF233C"/>
<circle cx="422.5" cy="82.5" r="1.5" fill="#EF233C"/>
<circle cx="431.5" cy="82.5" r="1.5" fill="#EF233C"/>
<circle cx="440.5" cy="82.5" r="1.5" fill="#EF233C"/>
<circle cx="449.5" cy="82.5" r="1.5" fill="#EF233C"/>
<circle cx="359.5" cy="91.5" r="1.5" fill="#EF233C"/>
<circle cx="368.5" cy="91.5" r="1.5" fill="#EF233C"/>
<circle cx="377.5" cy="91.5" r="1.5" fill="#EF233C"/>
<circle cx="386.5" cy="91.5" r="1.5" fill="#EF233C"/>
<circle cx="395.5" cy="91.5" r="1.5" fill="#EF233C"/>
<circle cx="404.5" cy="91.5" r="1.5" fill="#EF233C"/>
<circle cx="413.5" cy="91.5" r="1.5" fill="#EF233C"/>
<circle cx="422.5" cy="91.5" r="1.5" fill="#EF233C"/>
<circle cx="431.5" cy="91.5" r="1.5" fill="#EF233C"/>
<circle cx="440.5" cy="91.5" r="1.5" fill="#EF233C"/>
<circle cx="449.5" cy="91.5" r="1.5" fill="#EF233C"/>
<circle cx="1.5" cy="134.5" r="1.5" fill="#EF233C"/>
<circle cx="10.5" cy="134.5" r="1.5" fill="#EF233C"/>
<circle cx="19.5" cy="134.5" r="1.5" fill="#EF233C"/>
<circle cx="28.5" cy="134.5" r="1.5" fill="#EF233C"/>
<circle cx="37.5" cy="134.5" r="1.5" fill="#EF233C"/>
<circle cx="46.5" cy="134.5" r="1.5" fill="#EF233C"/>
<circle cx="55.5" cy="134.5" r="1.5" fill="#EF233C"/>
<circle cx="64.5" cy="134.5" r="1.5" fill="#EF233C"/>
<circle cx="73.5" cy="134.5" r="1.5" fill="#EF233C"/>
<circle cx="82.5" cy="134.5" r="1.5" fill="#EF233C"/>
<circle cx="91.5" cy="134.5" r="1.5" fill="#EF233C"/>
<circle cx="1.5" cy="143.5" r="1.5" fill="#EF233C"/>
<circle cx="10.5" cy="143.5" r="1.5" fill="#EF233C"/>
<circle cx="19.5" cy="143.5" r="1.5" fill="#EF233C"/>
<circle cx="28.5" cy="143.5" r="1.5" fill="#EF233C"/>
<circle cx="37.5" cy="143.5" r="1.5" fill="#EF233C"/>
<circle cx="46.5" cy="143.5" r="1.5" fill="#EF233C"/>
<circle cx="55.5" cy="143.5" r="1.5" fill="#EF233C"/>
<circle cx="64.5" cy="143.5" r="1.5" fill="#EF233C"/>
<circle cx="73.5" cy="143.5" r="1.5" fill="#EF233C"/>
<circle cx="82.5" cy="143.5" r="1.5" fill="#EF233C"/>
<circle cx="91.5" cy="143.5" r="1.5" fill="#EF233C"/>
<circle cx="1.5" cy="152.5" r="1.5" fill="#EF233C"/>
<circle cx="10.5" cy="152.5" r="1.5" fill="#EF233C"/>
<circle cx="19.5" cy="152.5" r="1.5" fill="#EF233C"/>
<circle cx="28.5" cy="152.5" r="1.5" fill="#EF233C"/>
<circle cx="37.5" cy="152.5" r="1.5" fill="#EF233C"/>
<circle cx="46.5" cy="152.5" r="1.5" fill="#EF233C"/>
<circle cx="55.5" cy="152.5" r="1.5" fill="#EF233C"/>
<circle cx="64.5" cy="152.5" r="1.5" fill="#EF233C"/>
<circle cx="73.5" cy="152.5" r="1.5" fill="#EF233C"/>
<circle cx="82.5" cy="152.5" r="1.5" fill="#EF233C"/>
<circle cx="91.5" cy="152.5" r="1.5" fill="#EF233C"/>
<circle cx="1.5" cy="161.5" r="1.5" fill="#EF233C"/>
<circle cx="10.5" cy="161.5" r="1.5" fill="#EF233C"/>
<circle cx="19.5" cy="161.5" r="1.5" fill="#EF233C"/>
<circle cx="28.5" cy="161.5" r="1.5" fill="#EF233C"/>
<circle cx="37.5" cy="161.5" r="1.5" fill="#EF233C"/>
<circle cx="46.5" cy="161.5" r="1.5" fill="#EF233C"/>
<circle cx="55.5" cy="161.5" r="1.5" fill="#EF233C"/>
<circle cx="64.5" cy="161.5" r="1.5" fill="#EF233C"/>
<circle cx="73.5" cy="161.5" r="1.5" fill="#EF233C"/>
<circle cx="82.5" cy="161.5" r="1.5" fill="#EF233C"/>
<circle cx="91.5" cy="161.5" r="1.5" fill="#EF233C"/>
<circle cx="1.5" cy="170.5" r="1.5" fill="#EF233C"/>
<circle cx="10.5" cy="170.5" r="1.5" fill="#EF233C"/>
<circle cx="19.5" cy="170.5" r="1.5" fill="#EF233C"/>
<circle cx="28.5" cy="170.5" r="1.5" fill="#EF233C"/>
<circle cx="37.5" cy="170.5" r="1.5" fill="#EF233C"/>
<circle cx="46.5" cy="170.5" r="1.5" fill="#EF233C"/>
<circle cx="55.5" cy="170.5" r="1.5" fill="#EF233C"/>
<circle cx="64.5" cy="170.5" r="1.5" fill="#EF233C"/>
<circle cx="73.5" cy="170.5" r="1.5" fill="#EF233C"/>
<circle cx="82.5" cy="170.5" r="1.5" fill="#EF233C"/>
<circle cx="91.5" cy="170.5" r="1.5" fill="#EF233C"/>
<circle cx="1.5" cy="179.5" r="1.5" fill="#EF233C"/>
<circle cx="10.5" cy="179.5" r="1.5" fill="#EF233C"/>
<circle cx="19.5" cy="179.5" r="1.5" fill="#EF233C"/>
<circle cx="28.5" cy="179.5" r="1.5" fill="#EF233C"/>
<circle cx="37.5" cy="179.5" r="1.5" fill="#EF233C"/>
<circle cx="46.5" cy="179.5" r="1.5" fill="#EF233C"/>
<circle cx="55.5" cy="179.5" r="1.5" fill="#EF233C"/>
<circle cx="64.5" cy="179.5" r="1.5" fill="#EF233C"/>
<circle cx="73.5" cy="179.5" r="1.5" fill="#EF233C"/>
<circle cx="82.5" cy="179.5" r="1.5" fill="#EF233C"/>
<circle cx="91.5" cy="179.5" r="1.5" fill="#EF233C"/>
<circle cx="1.5" cy="188.5" r="1.5" fill="#EF233C"/>
<circle cx="10.5" cy="188.5" r="1.5" fill="#EF233C"/>
<circle cx="19.5" cy="188.5" r="1.5" fill="#EF233C"/>
<circle cx="28.5" cy="188.5" r="1.5" fill="#EF233C"/>
<circle cx="37.5" cy="188.5" r="1.5" fill="#EF233C"/>
<circle cx="46.5" cy="188.5" r="1.5" fill="#EF233C"/>
<circle cx="55.5" cy="188.5" r="1.5" fill="#EF233C"/>
<circle cx="64.5" cy="188.5" r="1.5" fill="#EF233C"/>
<circle cx="73.5" cy="188.5" r="1.5" fill="#EF233C"/>
<circle cx="82.5" cy="188.5" r="1.5" fill="#EF233C"/>
<circle cx="91.5" cy="188.5" r="1.5" fill="#EF233C"/>
<circle cx="1.5" cy="197.5" r="1.5" fill="#EF233C"/>
<circle cx="10.5" cy="197.5" r="1.5" fill="#EF233C"/>
<circle cx="19.5" cy="197.5" r="1.5" fill="#EF233C"/>
<circle cx="28.5" cy="197.5" r="1.5" fill="#EF233C"/>
<circle cx="37.5" cy="197.5" r="1.5" fill="#EF233C"/>
<circle cx="46.5" cy="197.5" r="1.5" fill="#EF233C"/>
<circle cx="55.5" cy="197.5" r="1.5" fill="#EF233C"/>
<circle cx="64.5" cy="197.5" r="1.5" fill="#EF233C"/>
<circle cx="73.5" cy="197.5" r="1.5" fill="#EF233C"/>
<circle cx="82.5" cy="197.5" r="1.5" fill="#EF233C"/>
<circle cx="91.5" cy="197.5" r="1.5" fill="#EF233C"/>
<circle cx="1.5" cy="206.5" r="1.5" fill="#EF233C"/>
<circle cx="10.5" cy="206.5" r="1.5" fill="#EF233C"/>
<circle cx="19.5" cy="206.5" r="1.5" fill="#EF233C"/>
<circle cx="28.5" cy="206.5" r="1.5" fill="#EF233C"/>
<circle cx="37.5" cy="206.5" r="1.5" fill="#EF233C"/>
<circle cx="46.5" cy="206.5" r="1.5" fill="#EF233C"/>
<circle cx="55.5" cy="206.5" r="1.5" fill="#EF233C"/>
<circle cx="64.5" cy="206.5" r="1.5" fill="#EF233C"/>
<circle cx="73.5" cy="206.5" r="1.5" fill="#EF233C"/>
<circle cx="82.5" cy="206.5" r="1.5" fill="#EF233C"/>
<circle cx="91.5" cy="206.5" r="1.5" fill="#EF233C"/>
<circle cx="1.5" cy="215.5" r="1.5" fill="#EF233C"/>
<circle cx="10.5" cy="215.5" r="1.5" fill="#EF233C"/>
<circle cx="19.5" cy="215.5" r="1.5" fill="#EF233C"/>
<circle cx="28.5" cy="215.5" r="1.5" fill="#EF233C"/>
<circle cx="37.5" cy="215.5" r="1.5" fill="#EF233C"/>
<circle cx="46.5" cy="215.5" r="1.5" fill="#EF233C"/>
<circle cx="55.5" cy="215.5" r="1.5" fill="#EF233C"/>
<circle cx="64.5" cy="215.5" r="1.5" fill="#EF233C"/>
<circle cx="73.5" cy="215.5" r="1.5" fill="#EF233C"/>
<circle cx="82.5" cy="215.5" r="1.5" fill="#EF233C"/>
<circle cx="91.5" cy="215.5" r="1.5" fill="#EF233C"/>
<circle cx="1.5" cy="224.5" r="1.5" fill="#EF233C"/>
<circle cx="10.5" cy="224.5" r="1.5" fill="#EF233C"/>
<circle cx="19.5" cy="224.5" r="1.5" fill="#EF233C"/>
<circle cx="28.5" cy="224.5" r="1.5" fill="#EF233C"/>
<circle cx="37.5" cy="224.5" r="1.5" fill="#EF233C"/>
<circle cx="46.5" cy="224.5" r="1.5" fill="#EF233C"/>
<circle cx="55.5" cy="224.5" r="1.5" fill="#EF233C"/>
<circle cx="64.5" cy="224.5" r="1.5" fill="#EF233C"/>
<circle cx="73.5" cy="224.5" r="1.5" fill="#EF233C"/>
<circle cx="82.5" cy="224.5" r="1.5" fill="#EF233C"/>
<circle cx="91.5" cy="224.5" r="1.5" fill="#EF233C"/>
<path d="M121.082 97.0563C121.082 96.8101 120.233 96.068 117.186 93.1049C106.761 82.9638 106.746 81.2695 106.316 81.2676C104.86 81.2613 108.573 84.7342 114.614 93.4648C117.199 97.1994 120.523 102.665 122.455 105.824C124.387 108.983 124.751 109.721 125.06 110.286C125.581 111.239 124.891 107.786 123.178 98.3746C122.167 92.822 121.95 85.5174 121.76 79.623C121.433 69.4262 121.817 65.3522 121.696 67.0193C121.601 68.3194 121.332 70.5324 120.6 74.935C119.869 79.3377 118.655 85.8605 118.03 90.3899C116.66 100.322 117.894 102.52 118.078 102.96C118.525 104.03 117.776 96.9705 117.407 87.9284C117.194 82.7061 117.765 76.1788 118.317 70.2341C119.35 59.094 120.347 53.1793 120.407 51.9393C120.438 51.3123 120.589 50.6992 120.652 50.1976C120.714 49.696 120.714 49.3268 119.622 60.0284C118.53 70.7301 116.346 92.5138 115.221 105.213C114.096 117.911 114.096 120.865 114.278 123.433C114.827 131.18 116.662 134.582 118.501 136.708C118.865 137.129 119.479 136.961 119.911 136.838C121.825 136.293 123.523 133.493 125.121 130.756C125.796 129.599 127.2 126.299 128.731 121.333C129.778 117.938 130.024 113.865 130.759 108.657C131.128 106.047 131.009 103.449 130.827 102.117C130.645 100.786 130.281 100.786 130.033 100.97C128.753 101.923 128.803 104.135 127.888 108.908C126.909 114.012 126.229 119.798 125.437 121.231C125.224 121.616 124.766 121.79 124.275 121.609C121.461 120.572 121.575 116.091 121.571 109.884C121.57 108.615 121.935 108.252 122.121 108.37C123.901 109.496 122.185 117.143 121.88 121.352C121.839 121.915 121.817 122.528 121.575 122.661C119.674 123.698 118.883 117.091 117.471 112.116C116.574 108.955 115.934 106.384 116.177 105.886C116.298 105.637 116.905 105.88 117.337 106.19C119.075 107.435 118.751 109.975 118.876 111.48C118.936 112.203 118.876 108.416 118.936 107.396C118.977 106.721 119.243 113.772 119.365 124.087C119.44 130.509 119.736 134.716 119.551 141.163C119.446 144.79 119.001 148.515 118.265 150.44C117.539 152.342 118.019 154.113 117.653 154.734C117.475 155.037 117.045 155.109 116.675 154.803C114.632 153.112 114.346 150.522 113.486 148.901C113.118 147.284 112.625 141.116 113.418 137.463C113.725 137.211 114.089 137.088 114.464 136.588" stroke="#FEFEFE" stroke-width="5" stroke-linecap="round"/>
<path d="M300.892 62C298.95 59.0086 295.158 52.108 290.806 43.8004C289.258 40.8458 289.003 40.4785 289.06 40.4729C291.717 40.2089 293.278 47.5038 296.528 53.2921C297.435 54.9076 298.071 55.6999 298.316 56.6423C298.431 57.0882 298.56 57.46 297.955 57.1541C297.35 56.8481 296.015 55.851 292.595 52.3459C289.176 48.8408 283.714 42.858 280.596 39.5267C276.944 35.6241 276.004 34.8092 276 34.4919C275.987 33.354 281.481 39.9233 287.668 47.3433C292.996 53.7327 293.532 55.4506 294.083 55.5167C294.885 55.6128 293.664 51.7001 292.502 45.2451C290.752 35.5315 291.325 30.0162 292.058 31.1455C294.068 34.2376 297.184 43.8023 299.051 48.4594C299.222 48.8844 299.296 49.3998 299.116 49.2828C296.68 47.7005 296.846 44.2555 297.089 43.2471C297.497 41.5493 301.363 45.6228 304.438 47.5151C305.057 47.8957 305.542 48.1459 305.792 48.0873C306.042 48.0288 306.042 47.6549 305.921 47.2753C305.316 45.3855 303.107 44.3764 301.389 43.1205C300.775 42.367 300.403 41.6078 300.158 40.8543C300.035 40.4747 299.914 40.1008 299.421 38.9602" stroke="#FEFEFE" stroke-width="5" stroke-linecap="round"/>
<path d="M213 41C213.493 41.1886 214.474 41.9486 215.405 42.3638C216.178 42.7091 216.702 42.9676 217.01 43.1571C217.196 43.4724 217.381 43.8552 217.628 44.2352C217.752 44.4267 217.874 44.6152 218 45" stroke="#FEFEFE" stroke-width="5" stroke-linecap="round"/>
<path d="M225.147 31C225.147 31.1067 225.147 31.5616 225.189 32.181C225.219 32.6121 225.747 32.6428 225.876 32.7366C226.182 32.9592 225.834 33.476 225.763 33.8271C225.701 34.133 225.377 34.4457 225.134 34.7968C224.881 35.1604 224.69 35.5236 224.518 35.8606C224.301 36.2845 224.118 36.9216 223.56 38.2679C223.43 38.541 223.345 38.6477 223.259 38.7426C223.173 38.8376 223.088 38.9176 223 39" stroke="#FEFEFE" stroke-width="3" stroke-linecap="round"/>
<path d="M220 41C220.175 40.4353 220.468 39.3744 220.776 37.7843C221.277 35.2041 220.793 34.8571 220.706 34.4811C220.676 34.3897 220.647 34.3127 220.632 34.2345C220.617 34.1563 220.617 34.0793 220.617 34" stroke="#FEFEFE" stroke-width="3" stroke-linecap="round"/>
<path d="M220 32C219.505 31.9022 218.746 31.6059 218.262 31.4696C217.833 31.3488 217.458 31.0874 217.034 30.9019C216.668 30.7659 216.26 30.5689 215.5 30.1867C215.323 30.0993 215.207 30.0504 215 30" stroke="#FEFEFE" stroke-width="3" stroke-linecap="round"/>
<path d="M332.904 107.439C332.42 107.211 332.089 107.065 331.94 106.965C331.573 106.719 331.491 106.232 331.382 105.972C330.846 104.702 332.986 109.596 333 109.913C333.003 109.985 332.852 110 332.743 110C331.478 110.005 329.589 108.677 329.166 108.376C329.054 108.296 328.99 108.161 328.948 108.059C328.812 107.728 329.124 107.354 329.138 106.937C329.144 106.745 329.016 105.465 328.867 103.325C328.7 100.929 328.174 100.62 327.901 100.26C327.823 100.157 327.712 100.045 327.63 100.029C327.547 100.013 327.493 100.099 327.493 100.285C327.489 101.144 327.655 101.537 327.723 102.256C327.824 103.317 328.009 103.582 327.969 103.74C327.953 103.8 327.847 103.756 327.765 103.713C327.378 103.509 327.195 102.808 326.99 102.104C326.668 100.997 326.216 100.562 325.93 100.161C325.323 99.3105 325.372 98.7211 325.235 98.3753C325.085 97.9952 324.747 97.5988 324.285 97.1667C324.192 97.0804 324.094 97.136 324.053 97.2077C323.846 97.5632 324.2 98.084 324.229 98.5169C324.249 98.8205 323.768 97.9441 323.671 97.455C323.631 97.2533 323.549 97.0799 323.468 96.9931C323.238 96.7491 323.711 97.9113 323.753 98.4159C323.758 98.4743 323.685 98.1453 323.658 97.9864C323.636 97.8587 323.521 98.3723 323.495 98.5601C323.436 98.9659 323.141 97.8578 323.046 97.4123C322.868 96.5819 323.249 96.2174 323.493 95.9865C323.603 95.1271 323.576 94.0583 323.549 94C323.548 94.0272 323.575 94.1696 323.685 94.3164" stroke="#FEFEFE" stroke-width="3" stroke-linecap="round"/>
<path d="M330 96C330.352 95.855 330.967 95.6875 331.128 95.6566C331.469 95.5911 331.74 95.3962 332.369 95.1987C332.515 95.1462 332.611 95.105 332.708 95.0734C332.805 95.0419 332.901 95.0212 333 95" stroke="#FEFEFE" stroke-width="3" stroke-linecap="round"/>
<path fill-rule="evenodd" clip-rule="evenodd" d="M138.257 18.0964C136.499 18.8333 134.787 20.2989 134.452 21.3527C134.116 22.4075 132.376 23.9168 130.584 24.708C123.711 27.7423 122.535 38.6849 127.547 52.9755C129.256 57.8485 130.715 63.2427 130.789 64.9626L130.923 68.0896L131.646 64.4414C132.043 62.4349 133.198 59.5361 134.21 57.9986L136.053 55.2051L133.827 52.9849C131.189 50.354 131.35 45.9125 134.145 44.2208L136.038 43.0732L138.055 45.5237L140.072 47.9754L140.758 46.194C141.135 45.2142 141.744 42.9377 142.112 41.1365C143.093 36.3365 146.138 35.3389 157.719 36.0227L167.514 36.6012L167.058 47.6606L166.601 58.7199L163.886 64.6332C162.014 68.7119 160.165 71.0666 157.928 72.2204L154.684 73.8934L150.657 72.8125C146.938 71.8129 141.795 68.6181 139.757 66.0403C138.606 64.5831 140.024 69.5333 141.689 72.7802C143.041 75.4194 146.603 79.028 149.523 80.7156L151.121 81.6402L150.138 88.4155C149.501 92.8017 148.938 94.4257 148.54 93.0216C148.202 91.8281 144.045 87.4471 139.304 83.285L130.682 75.7175L130.559 71.9036L130.435 68.0896L129.775 70.7184C128.438 76.0469 123.168 81.2514 115.375 84.9403C107.407 88.7136 102.303 93.4969 99.5146 99.8052L97.8698 103.53L96.9972 147.829L96.1235 192.129L94.069 208.807C92.9393 217.98 92.0145 227.009 92.0155 228.872L92.0166 232.26H57.0083C37.7537 232.26 22 232.632 22 233.088C22 233.543 121.225 233.952 242.5 233.996C364.068 234.04 463 233.676 463 233.184C463 232.695 449.951 232.168 434.001 232.016L405.001 231.739L404.433 226.803C404.119 224.088 404.26 221.735 404.744 221.575C405.228 221.413 405.667 209.094 405.718 194.197L405.811 167.113L403.54 156.168C398.865 133.641 389.495 105.228 384.973 99.8667C382.702 97.1743 377.985 94.9958 364.245 90.2906C361.437 89.3286 359.963 88.159 359.754 86.7258L359.443 84.5932H364.062C370.348 84.5932 375.209 81.586 378.138 75.8833L380.534 71.2167L379.877 67.6049C378.858 62.0096 376.474 58.2415 372.458 55.8774C369.964 54.4098 368.934 53.1381 369.254 51.9207C370.157 48.4757 367.96 39.0935 365.319 35.1117C362.118 30.2867 356.207 26.3789 349.6 24.7195L344.735 23.4978L339.05 24.7664C335.723 25.5085 331.48 27.4713 328.82 29.4966C326.319 31.3999 323.279 33.4888 322.064 34.1371C316.779 36.9577 315.015 47.6241 318.638 54.8413C319.706 56.9677 320.875 60.9505 321.235 63.6909C322.029 69.7334 325.561 78.2223 328.313 80.7073C329.422 81.709 331.964 82.5627 333.96 82.6054L337.591 82.6825L337.594 86.9468L337.597 91.211L330.354 94.1192C326.347 95.7286 321.747 98.4804 320.059 100.278C318.38 102.067 312.417 112.442 306.809 123.334C301.2 134.227 296.309 143.441 295.943 143.811C295.575 144.181 285.743 145.986 274.095 147.82L252.916 151.157L247.97 149.991L243.023 148.827L235.707 149.897C231.684 150.486 226.826 151.259 224.911 151.614C222.996 151.97 220.409 151.763 219.164 151.157C217.917 150.55 209.256 148.771 199.915 147.204C188.838 145.346 182.934 143.913 182.934 143.087C182.934 138.589 178.417 108.932 177.137 105.024C175.276 99.3424 170.069 94.0765 161.737 89.4495C155.549 86.0128 152.628 82.2364 152.628 77.673V75.1661L155.916 74.2259C163.416 72.0808 168.266 60.6357 168.538 44.4376L168.685 35.7767L171.629 32.3526C175.198 28.202 175.383 24.2911 172.197 20.3197L169.831 17.3709L155.641 17.0634C145.806 16.8508 140.47 17.1676 138.257 18.0964ZM324.047 45.8385L321.646 50.0997L322.173 59.3078L322.699 68.5149L325.184 73.4598C326.551 76.1793 328.946 79.3293 330.507 80.4592L333.343 82.5137L337.514 81.267C339.806 80.5822 343.177 78.7675 345.001 77.2362L348.32 74.4511L347.524 77.0028C346.496 80.2997 343.26 84.8642 340.666 86.6768L338.625 88.1017L339.42 103.113L340.214 118.122L349.784 103.958L359.355 89.7924L356.314 79.5899C352.7 67.4663 352.584 65.3722 355.425 63.6023L357.578 62.2608L357.254 58.9211L356.93 55.5814L354.056 55.252C352.476 55.0706 351.182 55.4219 351.182 56.0338C351.182 59.7654 338.382 53.6708 331.434 46.6286L326.449 41.5774L324.047 45.8385ZM126.578 78.6538C125.386 80.1642 124.423 81.6892 124.436 82.0415C124.465 82.7982 139.092 99.2684 139.994 99.5582C140.718 99.7917 145.044 94.4944 145.858 92.3785C146.213 91.4581 143.163 88.1549 137.582 83.4143L128.743 75.9083L126.578 78.6538ZM115.348 86.1191C107.894 90.003 103.696 94.0108 101.102 99.7197L98.8981 104.572L98.1676 133.237C97.7653 149.002 97.3932 169.524 97.3389 178.839L97.2417 195.778H123.745H150.246L150.906 190.305C151.268 187.296 151.569 181.948 151.574 178.422L151.583 172.011L146.514 170.799L141.445 169.585L136.757 164.701C134.179 162.015 128.163 154.657 123.387 148.351C118.611 142.044 113.513 135.6 112.058 134.029C110.602 132.459 109.613 130.988 109.858 130.761C110.104 130.534 117.358 137.092 125.98 145.334C134.601 153.577 143.301 161.118 145.313 162.093C147.844 163.321 157.498 164.723 176.663 166.649C191.895 168.179 204.552 169.261 204.791 169.054C205.316 168.599 207.851 150.575 207.457 150.106C207.305 149.926 195.822 147.751 181.941 145.276C168.059 142.799 156.572 140.602 156.416 140.392C156.259 140.183 150.349 132.837 143.28 124.068C136.213 115.299 130.636 107.918 130.889 107.666C131.142 107.413 135.501 112.36 140.575 118.658C145.649 124.956 149.941 130.11 150.112 130.11C150.88 130.11 149.195 100.036 148.255 96.9565L147.202 93.5115L143.649 97.4777L140.095 101.445L131.47 92.3003C126.726 87.271 122.375 83.1891 121.8 83.2287C121.225 83.2694 118.321 84.5702 115.348 86.1191ZM151.606 87.6337C151.621 90.4178 152.389 93.032 153.673 94.6696L155.717 97.2754L155.74 92.8944C155.764 88.3831 154.011 83.2037 152.46 83.2037C151.978 83.2037 151.593 85.1967 151.606 87.6337ZM157.196 94.1484C157.568 97.3015 157.625 99.8813 157.325 99.8813C157.024 99.8813 155.338 98.3564 153.577 96.4937L150.376 93.106L150.995 112.739L151.612 132.372L154.266 135.84C157.426 139.973 157.947 140.205 166.253 141.142L172.705 141.869L171.946 130.778L171.189 119.686H172.359C173.15 119.686 173.528 123.357 173.528 131.036V142.385L177.293 143.09C179.363 143.478 181.242 143.611 181.466 143.386C181.692 143.161 181.168 137.151 180.301 130.029C176.848 101.632 175.677 99.2424 160.763 90.1458C159.203 89.1941 157.611 88.4155 157.224 88.4155C156.836 88.4155 156.825 90.9953 157.196 94.1484ZM350.468 105.662C344.933 113.949 340.008 120.728 339.523 120.728C339.038 120.728 338.591 117.093 338.528 112.65C338.467 108.208 338.113 101.914 337.744 98.6649L337.075 92.7568L330.805 95.3752C327.356 96.8147 323.217 99.233 321.605 100.748C319.995 102.263 313.767 112.948 307.766 124.492L296.856 145.481L293.975 146.015C292.39 146.309 283.883 147.657 275.07 149.014L259.048 151.478L259.752 157.114C260.14 160.213 260.699 163.379 260.996 164.15L261.534 165.549L271.089 165.548C286.123 165.547 303.149 163.635 306.737 161.545C311.135 158.983 312.155 156.299 313.932 142.618C315.296 132.111 319.331 117.797 320.579 119.041C320.82 119.283 320.281 121.957 319.38 124.984C317.148 132.481 317.323 139.386 319.897 145.374C321.743 149.672 323.834 164.151 323.976 173.628L324.012 175.973H350.015H376.017L376.752 168.416C377.156 164.259 377.636 159.617 377.817 158.1C378.314 153.925 376.287 145.607 374.97 146.419C374.354 146.799 374.13 146.657 374.473 146.103C375.326 144.727 373.111 136.364 371.894 136.364C371.356 136.364 371.172 135.949 371.486 135.441C371.801 134.934 371.551 133.068 370.931 131.294C370.311 129.521 370.012 127.472 370.266 126.744C370.52 126.015 374.035 135.504 378.077 147.829L385.427 170.24L387.653 191.608C388.878 203.361 390.149 214.736 390.478 216.885L391.077 220.794H397.778H404.479V194.788V168.783L402.33 157.524C398.204 135.911 388.436 105.759 383.915 100.678C381.75 98.2448 373.992 94.583 365.973 92.2075L360.531 90.596L350.468 105.662ZM315.129 154.72C312.83 157.829 309.506 161.287 307.742 162.408C303.407 165.16 288.432 166.788 270.716 166.433L256.608 166.151L256.273 168.457C256.091 169.724 255.317 170.761 254.556 170.761C253.797 170.761 252.912 171.442 252.592 172.274C252.272 173.105 249.566 175.179 246.58 176.88L241.15 179.973L235.52 179.634L229.891 179.295L226.006 176.417C223.87 174.834 221.075 172.328 219.796 170.847L217.469 168.155L216.506 169.607L215.544 171.06L204.202 170.331C197.965 169.929 191.097 169.333 188.941 169.006L185.023 168.41L185.51 171.41C185.777 173.06 186.292 178.096 186.655 182.602L187.313 190.794L191.177 187.032C193.301 184.962 195.335 183.269 195.697 183.269C196.058 183.269 198.508 185.418 201.139 188.042L205.924 192.815V200.029V207.243H211.149H216.374V199.643V192.042L221.028 187.487L225.68 182.933L227.559 184.4C228.592 185.208 230.965 187.264 232.834 188.968L236.23 192.067V199.655V207.243H241.455H246.68V199.643V192.042L251.286 187.535C256.369 182.559 256.548 182.572 262.599 188.383L266.5 192.129L266.518 199.686L266.536 207.243H271.761H276.986V199.647V192.051L281.987 187.138L286.989 182.224L291.915 187.213L296.841 192.201V199.722V207.243H302.066H307.291V200.061V192.877L312.455 187.699C316.016 184.128 317.955 182.857 318.701 183.601C319.448 184.346 320.275 183.508 321.367 180.901L322.951 177.121L321.864 163.782C321.268 156.444 320.448 150.133 320.044 149.756C319.639 149.378 317.428 151.613 315.129 154.72ZM208.676 152.707C208.355 154.324 207.801 157.992 207.444 160.859C207.086 163.725 206.566 166.891 206.289 167.895L205.783 169.719H210.434H215.086L215.724 167.374C216.076 166.083 216.668 161.863 217.041 157.992L217.719 150.957H215.042C213.57 150.957 211.666 150.689 210.812 150.361C209.726 149.946 209.082 150.652 208.676 152.707ZM238.328 150.881C237.471 151.449 235.732 151.653 234.465 151.335C233.198 151.018 230.608 151.255 228.709 151.86C226.81 152.467 223.846 153.134 222.122 153.345L218.987 153.726L218.043 160.26L217.1 166.793L218.517 167.666C219.296 168.147 221.249 168.277 222.857 167.956C224.808 167.567 225.78 167.806 225.78 168.673V169.974L227.34 168.682L228.901 167.39L232.565 169.125C234.581 170.078 236.23 171.289 236.23 171.813C236.23 173.108 244.785 176.809 246.419 176.221C248.538 175.457 247.941 174.231 244.329 171.923C239.913 169.102 241.283 169.073 246.064 171.886C249.54 173.932 251.905 173.889 251.905 171.78C251.905 171.26 250.151 169.647 248.005 168.193C245.86 166.739 244.567 165.553 245.131 165.557C245.696 165.56 247.568 166.495 249.293 167.634C253.008 170.088 255.04 170.291 255.04 168.208C255.04 166.298 242.386 157.211 239.725 157.211C238.633 157.211 236.934 158.149 235.95 159.295C233.821 161.775 229.96 162.077 229.96 159.764C229.96 157.533 232.932 151.999 234.131 151.999C234.672 151.999 234.131 153.66 232.93 155.692C230.272 160.184 231.001 161.285 234.891 158.654C239.597 155.473 240.783 155.297 243.706 157.348C245.232 158.42 246.765 159.295 247.112 159.295C247.459 159.295 249.194 160.586 250.969 162.162C252.742 163.738 254.619 164.981 255.14 164.924C255.66 164.867 256.844 164.75 257.772 164.663L259.458 164.507L258.732 159.683C257.664 152.58 257.443 152.311 252.104 151.604C249.408 151.248 245.557 150.707 243.545 150.403C241.533 150.099 239.186 150.313 238.328 150.881ZM367.38 153.041C367.025 153.615 367.233 154.084 367.841 154.084C368.449 154.084 368.948 153.615 368.948 153.041C368.948 152.468 368.741 151.999 368.487 151.999C368.233 151.999 367.736 152.468 367.38 153.041ZM379.112 160.424C378.782 161.811 378.196 166.011 377.812 169.759L377.112 176.576L381.274 186.437C383.564 191.861 385.686 197.002 385.992 197.862C387.04 200.809 386.694 193.169 385.214 180.643C384.399 173.753 382.828 165.817 381.722 163.01L379.712 157.906L379.112 160.424ZM367.38 160.338C367.736 160.911 368.233 161.38 368.487 161.38C368.741 161.38 368.948 160.911 368.948 160.338C368.948 159.764 368.449 159.295 367.841 159.295C367.233 159.295 367.025 159.764 367.38 160.338ZM367.38 163.465C367.025 164.038 367.233 164.507 367.841 164.507C368.449 164.507 368.948 164.038 368.948 163.465C368.948 162.891 368.741 162.422 368.487 162.422C368.233 162.422 367.736 162.891 367.38 163.465ZM173.538 183.909C173.542 193.016 173.85 202.99 174.221 206.072L174.896 211.677L181.181 211.021C184.638 210.66 187.543 210.25 187.636 210.108C188.026 209.515 184.316 169.708 183.826 169.22C183.532 168.926 181.094 168.386 178.41 168.018L173.528 167.351L173.538 183.909ZM221.96 170.285C221.619 171.17 221.604 172.155 221.923 172.474C222.839 173.387 224.735 171.839 224.735 170.178C224.735 168.178 222.741 168.255 221.96 170.285ZM226.17 171.336L224.424 173.996L225.68 175.244L226.938 176.494L228.948 173.888C230.054 172.455 230.969 170.697 230.982 169.979C231.021 167.713 227.989 168.569 226.17 171.336ZM367.38 170.761C367.736 171.334 368.233 171.804 368.487 171.804C368.741 171.804 368.948 171.334 368.948 170.761C368.948 170.188 368.449 169.719 367.841 169.719C367.233 169.719 367.025 170.188 367.38 170.761ZM230.505 173.479L228.72 176.196L229.919 177.387L231.118 178.579L233.128 175.973C234.234 174.54 235.149 172.781 235.162 172.064C235.203 169.793 232.359 170.657 230.505 173.479ZM152.616 179.812C152.61 184.293 152.313 189.719 151.957 191.869L151.309 195.778H161.896H172.483V185.424V175.071L170.655 174.565C169.648 174.286 166.004 173.758 162.556 173.391C159.107 173.023 155.463 172.484 154.457 172.192L152.628 171.663L152.616 179.812ZM234.656 175.979C232.583 178.265 233.112 179.717 235.662 178.74C236.55 178.401 237.275 177.171 237.275 176.005C237.275 173.375 237.022 173.372 234.656 175.979ZM238.32 176.383C238.32 178.228 241.163 179.372 242.078 177.896C242.457 177.283 242.12 176.373 241.327 175.873C239.256 174.564 238.32 174.722 238.32 176.383ZM191.744 188.74L187.576 193.172L188.26 200.468C189.292 211.465 189.315 221.836 188.309 221.836C187.817 221.836 187.88 224.182 188.447 227.048L189.481 232.26H197.18H204.879V212.672V193.084L200.396 188.696L195.913 184.308L191.744 188.74ZM221.819 188.779L217.419 193.251V212.755V232.26H226.302H235.185V212.672V193.084L230.702 188.696L226.219 184.308L221.819 188.779ZM252.125 188.779L247.725 193.251V212.755V232.26H256.608H265.491V212.672V193.084L261.007 188.696L256.524 184.308L252.125 188.779ZM282.43 188.779L278.031 193.251V212.755V232.26H286.914H295.796V212.672V193.084L291.313 188.696L286.83 184.308L282.43 188.779ZM312.73 188.786L308.336 193.251L308.434 213.016L308.532 232.781L310.398 221.836C312.341 210.438 313.241 206.584 316.914 193.91C319.732 184.187 318.609 182.811 312.73 188.786ZM209.32 209.039L205.924 209.461V213.042V216.625H210.627H215.329V212.455C215.329 209.725 214.878 208.343 214.023 208.453C213.305 208.544 211.188 208.809 209.32 209.039ZM236.23 212.455V216.625H240.932H245.635V212.455V208.286H240.932H236.23V212.455ZM267.233 208.981C266.849 209.363 266.536 211.239 266.536 213.15V216.625H271.238H275.941V212.455V208.286H271.935C269.731 208.286 267.615 208.599 267.233 208.981ZM297.886 212.455V216.625H302.589H307.291V212.455V208.286H302.589H297.886V212.455ZM179.799 212.351L175.096 212.976L174.767 217.558L174.439 222.139L179.354 221.466C182.058 221.096 185.145 220.794 186.215 220.794H188.159V216.103V211.413L186.33 211.569C185.324 211.656 182.385 212.007 179.799 212.351ZM205.924 225.485V232.26H211.149H216.374V225.485V218.709H211.149H205.924V225.485ZM236.23 225.485V232.26H241.455H246.68V225.485V218.709H241.455H236.23V225.485ZM266.536 225.485V232.26H271.761H276.986V225.485V218.709H271.761H266.536V225.485ZM296.841 225.485V232.26H302.066H307.291V225.485V218.709H302.066H296.841V225.485ZM179.015 222.59L175.618 223.011V227.635V232.26H181.889C188.749 232.26 188.84 232.144 187.058 225.745C186.309 223.053 185.417 221.889 184.191 222.003C183.212 222.095 180.882 222.36 179.015 222.59ZM389.896 225.912C388.721 228.21 387.758 230.58 387.758 231.176C387.758 231.834 390.962 232.26 395.905 232.26H404.052L403.482 227.309L402.911 222.358L397.473 222.044L392.035 221.731L389.896 225.912Z" fill="#EF233C"/>
<path d="M320 180C320 180.297 319.811 181.149 319.193 183.176C318.921 184.067 318.477 184.613 318.286 185.126C318.09 185.654 317.48 186.659 317.144 188.05C316.24 189.953 315.291 191.744 313.935 193.327C313.436 193.797 312.729 194.39 312 195" stroke="#FEFEFE" stroke-width="3" stroke-linecap="round"/>
</svg>
