<svg width="385" height="194" viewBox="0 0 385 194" fill="none" xmlns="http://www.w3.org/2000/svg">
<path fill-rule="evenodd" clip-rule="evenodd" d="M111.076 0.205147C109.976 0.451147 108.401 1.22815 107.576 1.93115C106.751 2.63415 105.135 3.49515 103.984 3.84515C102.834 4.19415 100.809 5.63415 99.4844 7.04415C97.2074 9.46815 97.0723 10.3091 97.0023 22.4631C96.9273 35.2831 96.1573 38.4461 93.1094 38.4461C92.4364 38.4461 91.0873 39.3291 90.1103 40.4081C89.1333 41.4881 85.3513 43.7642 81.7053 45.4682C74.1323 49.0072 70.2073 52.3632 67.5093 57.6082C57.0433 77.9521 46.6323 129.953 50.6033 142.047C53.5613 151.055 57.0844 154.357 76.2383 166.07C78.4203 167.405 56.2613 163.981 49.5763 161.951C40.1323 159.083 40.8533 158.982 38.5533 163.491C37.3893 165.773 36.6724 168.253 36.9594 169.002C37.2463 169.75 36.4123 172.294 35.1043 174.655C32.4393 179.465 29.1883 191.01 30.0893 192.467C30.4523 193.054 19.7054 193.522 1.87535 193.697C-13.9636 193.851 72.3014 193.977 193.576 193.977C314.851 193.976 399.78 193.85 382.308 193.696L350.539 193.418L352.058 190.482C354.195 186.349 353.939 182.768 351.067 176.599C349.698 173.658 348.81 170.876 349.094 170.418C349.846 169.201 346.411 162.446 345.04 162.446C343.109 162.446 337.179 164.645 335.576 165.956C334.261 167.031 322.576 168.84 322.576 167.969C322.576 167.786 324.526 166.493 326.91 165.096C339.777 157.556 343.248 146.887 338.089 130.734C336.721 126.451 335.596 122.466 335.589 121.88C335.582 121.293 338.325 119.5 341.684 117.894C345.044 116.288 348.419 114.081 349.184 112.988C352.561 108.166 349.108 94.5892 339.473 74.8132C335.228 66.0972 334.68 64.3042 335.556 61.9972C338.066 55.3972 335.769 47.7752 330.073 43.8032C322.068 38.2201 320.917 36.6692 318.515 28.2211C316.509 21.1701 315.469 19.2532 311.483 15.2632C306.313 10.0872 302.696 8.89215 294.564 9.67315C289.793 10.1321 287.123 11.6361 277.533 19.2691C271.927 23.7301 271.413 32.2441 276.18 41.6521C278.367 45.9671 278.556 47.2742 277.995 54.2071C277.411 61.4261 277.544 62.2001 279.965 65.7301L282.561 69.5132L274.387 83.0172C269.891 90.4442 265.732 96.3442 265.144 96.1282C264.557 95.9132 258.676 94.0352 252.076 91.9552C245.476 89.8762 238.951 87.1802 237.576 85.9632C234.429 83.1781 219.061 77.0281 217.563 77.9541C216.232 78.7771 218.89 82.0931 221.559 82.9411C222.973 83.3891 223.193 84.3722 222.8 88.4642C222.284 93.8352 222.165 93.7122 230.869 96.7841C233.308 97.6441 231.577 100.865 227.262 103.496C224.3 105.302 222.025 105.439 194.877 105.442L165.677 105.446L162.73 108.6L159.783 111.753L153.179 109.862C147.844 108.334 146.579 107.584 146.59 105.958C146.621 101.27 147.792 99.7251 152.922 97.5981C158.024 95.4841 161.583 94.7722 160.214 96.1412C159.832 96.5242 161.444 97.7612 163.797 98.8912C166.151 100.021 167.851 101.396 167.576 101.946C167.301 102.496 166.738 102.834 166.326 102.696C165.914 102.559 165.576 102.896 165.576 103.446C165.576 103.996 165.971 104.446 166.454 104.446C167.899 104.446 169.797 101.612 169.103 100.49C168.748 99.9162 169.2 99.4462 170.107 99.4462C173.157 99.4462 178.76 91.2122 178.324 87.3701C178.127 85.6341 178.926 84.8702 182.222 83.6472C185.611 82.3892 186.598 81.4101 187.632 78.2771L188.896 74.4462L215.986 74.2162L243.076 73.9861L220.826 73.6972C201.973 73.4522 198.576 73.1822 198.576 71.9272C198.576 70.8992 199.655 70.4462 202.107 70.4462C206.471 70.4462 206.868 69.4881 205.866 61.3681C205.288 56.6811 204.669 54.9461 203.575 54.9461C202.565 54.9461 201.975 56.1691 201.766 58.6961C201.53 61.5441 201.017 62.4461 199.632 62.4461C197.233 62.4461 196.607 59.7771 196.584 49.4461C196.559 38.3731 195.315 34.1121 191.19 30.9651C188.654 29.0311 186.698 28.4461 182.765 28.4461C178.262 28.4461 177.227 28.8621 174.206 31.8831C171.795 34.2941 170.441 36.8461 169.672 40.4321C168.164 47.4661 168.157 47.4461 171.949 47.4461C175.272 47.4461 175.329 47.3712 175.809 42.3712C176.398 36.2382 178.342 34.0461 183.191 34.0461C189.124 34.0461 190.576 36.7851 190.576 47.9801C190.576 53.1031 190.135 59.4652 189.596 62.1202C189.058 64.7742 188.37 68.9712 188.067 71.4462C187.358 77.2512 186.117 79.3872 184.431 77.7012C183.46 76.7302 183.696 75.9472 185.56 73.9632C186.856 72.5832 187.68 71.2161 187.389 70.9261C187.099 70.6351 186.292 71.0842 185.596 71.9221C184.427 73.3301 179.576 74.1272 179.576 72.9111C179.576 72.6161 180.3 71.2712 181.184 69.9212C182.61 67.7462 182.62 67.4002 181.275 66.8842C179.164 66.0742 173.849 69.0112 173.088 71.4082C172.505 73.2442 171.399 73.4152 158.267 73.6992L144.076 74.0052L158.326 74.2262C171.63 74.4312 172.576 74.5732 172.576 76.3642C172.576 79.8352 171.399 81.4462 168.863 81.4462C167.488 81.4462 164.724 82.7261 162.72 84.2901C159.4 86.8821 157.714 87.2902 143.754 88.8862C135.328 89.8482 128.31 90.4812 128.161 90.2912C128.011 90.1012 127.114 87.4712 126.168 84.4462C122.086 71.4032 118.178 61.7051 115.692 58.4461C112.934 54.8291 110.576 50.1482 110.576 48.2882C110.576 47.6142 111.855 47.4631 114.062 47.8771C117.459 48.5151 120.674 47.4911 123.198 44.9672C125.395 42.7702 129.444 33.7691 131.2 27.1782C132.455 22.4711 133.602 20.2351 135.201 19.3791C141.954 15.7651 139.776 5.45915 132.255 5.43615C130.506 5.43115 126.826 4.38215 124.076 3.10515C118.506 0.519149 114.082 -0.467853 111.076 0.205147ZM124.389 18.6902C128.067 19.9242 131.192 20.9771 131.333 21.0301C131.474 21.0831 131.306 22.5481 130.958 24.2861C130.562 26.2671 129.719 27.4521 128.701 27.4611C127.285 27.4751 127.269 27.6031 128.576 28.4611C129.834 29.2871 129.854 29.5891 128.698 30.3341C127.94 30.8231 127.578 31.6411 127.895 32.1521C128.211 32.6642 127.425 35.3372 126.148 38.0932C123.798 43.1662 119.532 47.4461 116.827 47.4461C114.264 47.4461 108.008 43.3921 106.285 40.6141L104.629 37.9461L104.606 40.9461C104.594 42.5961 105.466 45.3941 106.545 47.1632C108.313 50.0642 108.37 50.7042 107.116 53.6632C105.866 56.6152 105.649 56.7441 104.968 54.9461C104.551 53.8461 102.073 50.1072 99.4613 46.6371L94.7133 40.3282L96.6233 37.0911C97.6733 35.3111 99.9203 32.8291 101.615 31.5751C104.038 29.7841 104.454 29.0042 103.56 27.9262C102.934 27.1732 102.57 25.5191 102.749 24.2511C103.185 21.1741 107.1 20.5171 107.852 23.3941C108.705 26.6561 110.429 25.8021 112.788 20.9461C113.991 18.4711 115.588 16.4461 116.338 16.4461C117.088 16.4461 120.711 17.4562 124.389 18.6902ZM117.576 24.8292C117.576 25.0402 118.701 25.4282 120.076 25.6912C121.451 25.9542 122.576 25.7811 122.576 25.3071C122.576 24.8341 121.451 24.4461 120.076 24.4461C118.701 24.4461 117.576 24.6192 117.576 24.8292ZM290.873 29.2452C292.411 29.9052 294.857 30.4461 296.309 30.4461C297.76 30.4461 299.984 31.4201 301.251 32.6101C303.341 34.5742 303.718 34.6331 305.316 33.2411C306.284 32.3971 307.639 31.9111 308.326 32.1601C310.101 32.8031 309.9 38.3851 308.076 39.0841C304.793 40.3441 307.876 53.8361 311.971 56.1271C313.322 56.8831 312.666 58.5531 307.511 67.4801C304.187 73.2361 301.097 78.3181 300.644 78.7731C300.192 79.2291 299.243 75.0611 298.535 69.5121C297.299 59.8121 297.328 59.3361 299.288 57.1841C304.041 51.9651 305.129 46.7391 300.499 51.3691C294.292 57.5761 288.763 56.2271 284.417 47.4461C282.92 44.4211 281.415 40.5182 281.073 38.7742C280.533 36.0182 280.755 35.5431 282.764 35.1601C284.823 34.7671 284.775 34.7031 282.326 34.5821C279.149 34.4251 278.887 33.0312 281.059 27.8331L282.541 24.2851L285.309 26.1642C286.831 27.1982 289.335 28.5842 290.873 29.2452ZM190.062 31.6141C194.282 34.9331 195.576 39.2281 195.576 49.9142C195.576 58.7792 195.436 59.4461 193.576 59.4461C191.702 59.4461 191.574 58.7691 191.544 48.6961C191.524 41.8271 191.073 37.3731 190.294 36.3591C188.642 34.2071 185.164 32.4461 182.565 32.4461C179.826 32.4461 174.576 37.6531 174.576 40.3691C174.576 41.7791 173.934 42.4461 172.576 42.4461C170.213 42.4461 170.104 41.5102 171.955 37.0821C173.982 32.2311 178.037 29.4461 183.076 29.4461C185.901 29.4461 188.222 30.1661 190.062 31.6141ZM124.828 33.9461C124.839 36.1461 125.044 36.9281 125.283 35.6841C125.522 34.4401 125.513 32.6401 125.263 31.6841C125.013 30.7281 124.817 31.7461 124.828 33.9461ZM291.845 33.1391C292.818 33.3932 294.168 33.3761 294.845 33.1021C295.522 32.8281 294.726 32.6211 293.076 32.6411C291.426 32.6611 290.872 32.8851 291.845 33.1391ZM292.576 36.4461C292.576 36.9961 293.053 37.4461 293.635 37.4461C294.217 37.4461 294.416 36.9961 294.076 36.4461C293.736 35.8961 293.26 35.4461 293.017 35.4461C292.774 35.4461 292.576 35.8961 292.576 36.4461ZM286.576 41.4461C286.576 43.0961 286.948 44.4461 287.403 44.4461C287.858 44.4461 288.031 43.0961 287.789 41.4461C287.547 39.7961 287.175 38.4461 286.963 38.4461C286.75 38.4461 286.576 39.7961 286.576 41.4461ZM100.837 56.6961C99.3884 58.2081 97.9233 59.4461 97.5823 59.4461C97.2403 59.4461 95.0043 55.7721 92.6114 51.2821L88.2624 43.1191L90.5653 41.2541L92.8693 39.3881L98.1703 46.6671L103.472 53.9451L100.837 56.6961ZM118.574 40.8221C119.949 41.6251 121.261 42.0941 121.491 41.8641C122.112 41.2431 121.361 40.7701 118.576 40.0291L116.076 39.3631L118.574 40.8221ZM174.331 45.1961C174.589 45.9801 173.779 46.4461 172.159 46.4461C170.479 46.4461 169.576 45.8971 169.576 44.8761C169.576 42.9961 173.698 43.2731 174.331 45.1961ZM91.6074 51.5092C95.9824 60.5542 96.7864 61.2132 100.18 58.5431C101.646 57.3901 103.235 56.4461 103.711 56.4461C104.882 56.4461 104.8 61.8182 103.52 69.0122C101.682 79.3462 101.673 79.3531 98.3083 73.0822C96.6363 69.9682 95.0763 67.6132 94.8393 67.8502C94.3803 68.3092 104.612 88.7452 106.798 91.7352C107.819 93.1322 111.313 93.9242 122.916 95.3932C131.064 96.4242 137.96 97.4972 138.241 97.7782C138.522 98.0592 138.435 101.249 138.048 104.867L137.343 111.446H119.427C106.361 111.446 100.608 111.068 98.1723 110.051C95.7353 109.032 92.0483 104.91 84.5353 94.8011C78.8713 87.1811 73.5743 80.2711 72.7633 79.4462C71.9523 78.6212 74.9864 85.1461 79.5053 93.9462C84.0233 102.746 88.8134 111.096 90.1484 112.501C92.9284 115.426 92.9514 115.598 91.4934 122.397L90.4103 127.446L81.7434 127.415C74.4284 127.388 52.1263 124.385 51.1123 123.29C50.9373 123.101 52.2933 115.521 54.1253 106.446C59.5013 79.8182 66.9723 57.2411 71.9553 52.5591C74.7653 49.9201 84.6144 44.4881 86.6334 44.4641C87.5804 44.4531 89.5274 47.2102 91.6074 51.5092ZM290.758 46.5821C287.469 47.5302 286.873 49.4621 289.639 50.2101C290.842 50.5351 290.836 50.4321 289.604 49.5761C288.052 48.4981 287.938 48.5821 293.076 46.9771C295.152 46.3291 294.964 48.1211 292.826 49.3661C291.864 49.9271 291.549 50.3992 292.126 50.4161C293.57 50.4571 295.576 48.3232 295.576 46.7462C295.576 45.2722 295.335 45.2641 290.758 46.5821ZM169.918 53.8551C167.934 58.0161 168.693 60.4461 171.977 60.4461C175.216 60.4461 176.138 57.4332 174.102 53.4962C173.234 51.8181 172.304 50.4461 172.034 50.4461C171.764 50.4461 170.812 51.9801 169.918 53.8551ZM110.865 52.6961C111.116 53.3841 110.444 54.9122 109.371 56.0932C107.488 58.1662 107.483 58.3142 109.22 60.3432C111.686 63.2232 112.397 62.9921 112.763 59.1961L113.076 55.9461L115.758 60.4461C117.233 62.9211 120.337 70.5712 122.657 77.4462C124.976 84.3212 127.25 90.3671 127.71 90.8811C128.228 91.4612 132.423 91.3622 138.72 90.6232C144.315 89.9672 149.052 89.5892 149.247 89.7832C149.441 89.9782 149.707 91.8941 149.838 94.0412C150.046 97.4472 149.82 97.9062 148.076 97.6302C139.418 96.2642 133.533 95.4872 123.576 94.3972C117.251 93.7052 111.71 92.8202 111.263 92.4292C110.582 91.8352 111.931 84.8652 114.236 77.0712C114.541 76.0382 114.372 75.4542 113.858 75.7722C113.345 76.0892 112.098 79.9702 111.087 84.3972C110.076 88.8242 108.955 92.4462 108.596 92.4462C108.237 92.4462 106.672 89.7862 105.119 86.5352L102.293 80.6241L104.074 71.2852C105.053 66.1492 106.238 61.4551 106.707 60.8541C107.175 60.2531 107.293 59.4961 106.968 59.1711C106.173 58.3771 108.508 51.4461 109.57 51.4461C110.032 51.4461 110.615 52.0091 110.865 52.6961ZM174.576 57.1691C174.576 58.9941 171.699 59.9692 170.336 58.6062C169.528 57.7982 169.57 56.7542 170.491 54.7332C171.707 52.0642 171.802 52.0351 173.164 53.8971C173.941 54.9591 174.576 56.4311 174.576 57.1691ZM84.0763 54.5711C85.1763 55.1561 87.3143 57.0381 88.8263 58.7531C90.3383 60.4671 91.5763 61.3722 91.5763 60.7621C91.5763 59.3271 84.8783 53.4371 83.2913 53.4761C82.6233 53.4931 82.9763 53.9861 84.0763 54.5711ZM111.576 58.1461C111.576 60.1571 111.287 60.5571 110.443 59.7131C109.82 59.0901 109.581 57.8751 109.912 57.0131C110.827 54.6282 111.576 55.1371 111.576 58.1461ZM324.665 60.0611C327.188 60.8521 330.426 62.7252 331.861 64.2232C337.224 69.8242 349.576 99.8951 349.576 107.351C349.576 111.98 347.295 114.285 339.076 117.966C333.42 120.498 316.937 126.446 315.574 126.446C315.229 126.446 314.152 124.779 313.18 122.742C311.076 118.33 310.373 119.07 324.576 110.738C329.801 107.672 334.277 104.989 334.522 104.776C335.111 104.263 325.346 84.4462 324.505 84.4462C324.146 84.4462 324.068 85.5712 324.331 86.9462C324.594 88.3212 325.176 89.4462 325.625 89.4462C326.437 89.4462 328.23 93.8811 327.473 94.0172C327.255 94.0572 327.864 94.8762 328.826 95.8392C331.36 98.3732 331.19 105.047 328.555 106.457C327.444 107.052 326.094 107.266 325.555 106.933C325.017 106.6 324.576 106.999 324.576 107.82C324.576 109.394 321.108 111.002 318.576 110.6C317.335 110.404 317.315 110.524 318.458 111.295C319.551 112.032 319.371 112.376 317.601 112.938C315.544 113.591 313.19 115.213 310.177 118.055C309.531 118.664 306.544 119.389 303.539 119.666C300.534 119.943 297.449 120.344 296.684 120.558C295.682 120.837 294.741 118.699 293.331 112.946C292.252 108.546 290.573 104.046 289.598 102.946C285.514 98.3372 284.624 93.2492 286.495 85.1962C286.974 83.1342 287.028 81.4462 286.616 81.4462C285.803 81.4462 282.075 93.5962 280.995 99.7672C279.6 107.738 272.011 113.207 264.961 111.319C259.643 109.895 240.533 100.498 239.97 99.0302C239.585 98.0282 242.125 90.4342 242.839 90.4521C242.97 90.4551 248.026 92.0221 254.076 93.9352C260.126 95.8482 265.572 97.4202 266.178 97.4292C266.783 97.4392 270.262 92.3502 273.908 86.1232C283.377 69.9492 285.845 66.8501 291.567 63.9511C294.956 62.2331 296.582 61.8222 296.596 62.6791C296.63 64.8681 298.594 77.8632 299.17 79.7112C299.976 82.2981 300.881 81.3232 306.14 72.1962C315.209 56.4552 314.466 57.3891 317.407 58.0361C318.875 58.3591 322.141 59.2711 324.665 60.0611ZM196.576 61.9461C196.576 62.7791 197.465 63.4461 198.576 63.4461C200.132 63.4461 200.576 64.1132 200.576 66.4462C200.576 68.4462 200.076 69.4462 199.076 69.4462C198.243 69.4462 197.576 70.3352 197.576 71.4462C197.576 73.1132 196.909 73.4462 193.576 73.4462C189.129 73.4462 189.082 73.3291 190.212 65.0862C190.8 60.7942 191.063 60.4461 193.712 60.4461C195.591 60.4461 196.576 60.9621 196.576 61.9461ZM205.076 66.4462C205.076 68.0061 204.43 69.0432 203.326 69.2561C201.959 69.5191 201.576 68.9052 201.576 66.4462C201.576 63.9872 201.959 63.3731 203.326 63.6362C204.43 63.8492 205.076 64.8862 205.076 66.4462ZM179.187 70.9182C177.616 73.3141 177.674 73.4872 181.072 76.5782C182.999 78.3322 184.576 80.1392 184.576 80.5932C184.576 81.0482 183.056 82.0541 181.198 82.8311C179.34 83.6071 177.532 84.7082 177.18 85.2782C176.816 85.8661 175.003 86.0652 172.984 85.7372C169.923 85.2411 169.043 85.5831 166.646 88.2081C165.116 89.8841 163.588 91.9732 163.251 92.8502C162.914 93.7282 161.725 94.4462 160.607 94.4462C159.052 94.4462 158.576 93.7942 158.576 91.6602C158.576 89.5632 159.626 88.0652 162.826 85.6002C166.426 82.8272 167.611 82.4261 170.574 82.9781C172.497 83.3362 174.354 84.0862 174.699 84.6452C175.106 85.3032 175.581 85.2472 176.052 84.4852C176.491 83.7752 176 83.1081 174.809 82.7971C173.112 82.3531 172.906 81.6382 173.321 77.6142C173.91 71.8912 175.937 68.4462 178.714 68.4462C180.709 68.4462 180.731 68.5602 179.187 70.9182ZM174.982 77.5981C174.216 78.8381 177.12 81.4462 179.267 81.4462C180.906 81.4462 180.969 79.2392 179.376 77.6461C177.858 76.1282 175.904 76.1071 174.982 77.5981ZM225.156 80.9041C229.799 82.8311 230.49 83.3711 228.36 83.4041C225.389 83.4501 218.576 80.5652 218.576 79.2612C218.576 78.1542 218.468 78.1271 225.156 80.9041ZM237.499 87.0352C240.792 89.8062 241.104 90.9271 239.647 94.7601C238.796 96.9971 238.371 97.1402 234.607 96.4521C229.518 95.5211 229.474 95.4752 230.394 92.0341C231.065 89.5261 231.29 89.3961 232.483 90.8342C233.219 91.7212 234.216 92.4462 234.698 92.4462C235.181 92.4462 234.676 91.5462 233.576 90.4462C232.476 89.3462 231.576 87.9962 231.576 87.4462C231.576 86.8961 230.424 86.4462 229.017 86.4462C227.566 86.4462 226.725 86.0132 227.076 85.4462C228.302 83.4622 234.349 84.3842 237.499 87.0352ZM170.326 87.8382C169.363 88.5692 168.576 89.6421 168.576 90.2231C168.576 90.8041 168.116 91.4332 167.555 91.6201C166.993 91.8071 166.431 93.3472 166.305 95.0432C166.127 97.4322 165.682 98.0232 164.326 97.6692C163.363 97.4182 162.576 96.9882 162.576 96.7132C162.576 95.4241 169.884 86.4501 170.911 86.4781C171.552 86.4951 171.289 87.1071 170.326 87.8382ZM229.576 88.5791C229.576 89.0771 228.338 89.2311 226.826 88.9221L224.076 88.3602L227.076 89.8701L230.076 91.3802L227.076 91.1631C224.826 91.0001 224.05 90.4322 223.972 88.8912C223.885 87.1822 224.35 86.9062 226.722 87.2542C228.292 87.4842 229.576 88.0801 229.576 88.5791ZM177.117 88.5132C177.48 89.0992 177.599 89.7561 177.382 89.9731C176.696 90.6601 172.576 89.2511 172.576 88.3291C172.576 87.0781 176.324 87.2292 177.117 88.5132ZM157.421 91.3902C157.764 93.8192 155.471 96.4462 153.01 96.4462C151.696 96.4462 150.246 90.7891 151.175 89.2861C151.499 88.7611 152.96 88.4701 154.42 88.6391C156.366 88.8641 157.168 89.5992 157.421 91.3902ZM174.461 90.8392C177.587 92.5712 175.56 93.8522 172.151 92.2982C169.457 91.0712 168.681 89.4212 170.826 89.4812C171.514 89.5012 173.149 90.1122 174.461 90.8392ZM172.174 93.4832C174.088 94.2112 174.587 94.8352 173.846 95.5762C172.659 96.7632 168.576 95.0852 168.576 93.4111C168.576 92.2031 168.821 92.2082 172.174 93.4832ZM228.576 93.4462C228.576 94.6202 227.807 94.6202 225.076 93.4462C223.304 92.6842 223.389 92.5792 225.826 92.5162C227.338 92.4782 228.576 92.8961 228.576 93.4462ZM169.994 96.0531C170.864 96.3871 171.576 97.0621 171.576 97.5531C171.576 98.9841 168.935 98.5832 167.576 96.9462C166.256 95.3562 167.235 94.9941 169.994 96.0531ZM145.916 98.1962C146.167 98.6082 146.081 101.646 145.725 104.946C145.082 110.888 145.043 110.949 141.683 111.27L138.29 111.594L138.922 107.77C139.27 105.667 139.559 102.483 139.565 100.696C139.575 97.7691 139.868 97.4462 142.517 97.4462C144.135 97.4462 145.664 97.7841 145.916 98.1962ZM237.199 98.9062C237.819 100.522 255.212 109.337 263.118 112.042C270.061 114.418 272.826 113.452 279.798 106.215L285.682 100.108L287.722 102.147C290.546 104.972 295.326 123.446 293.233 123.446C293.044 123.446 290.231 122.529 286.983 121.408C277.786 118.236 262.643 114.453 256.514 113.796C250.686 113.172 246.39 114.556 243.556 117.97C242.369 119.401 240.199 119.584 227.629 119.318C216.338 119.078 212.424 119.338 210.166 120.478C205.197 122.985 203.594 126.176 203.276 134.19C202.963 142.079 201.691 144.616 199.118 142.481C197.238 140.921 197.01 132.412 198.801 130.621C199.768 129.654 199.768 128.982 198.801 127.435C196.992 124.538 197.16 111.446 199.006 111.446C199.793 111.446 200.581 110.434 200.756 109.196C201.064 107.031 201.549 106.927 213.577 106.446C224.515 106.009 226.477 105.661 229.268 103.67C231.022 102.418 232.74 100.506 233.084 99.4202C233.816 97.1142 236.388 96.7932 237.199 98.9062ZM332.938 102.946C333.254 103.771 333.077 104.446 332.545 104.446C332.012 104.446 331.576 103.771 331.576 102.946C331.576 102.121 331.753 101.446 331.969 101.446C332.185 101.446 332.621 102.121 332.938 102.946ZM186.576 108.567C186.576 109.635 187.251 110.768 188.076 111.084C189.995 111.821 190.226 125.396 188.351 127.271C187.384 128.238 187.384 128.91 188.351 130.457C189.025 131.536 189.576 135.17 189.576 138.532C189.576 144.152 189.851 144.921 192.976 148.046C196.822 151.892 201.53 152.556 206.548 149.96C210.433 147.951 213.779 139.205 212.957 133.206L212.374 128.946L226.975 128.601C240.624 128.278 241.577 128.375 241.584 130.101C241.589 131.116 243.079 138.583 244.896 146.696C247.961 160.385 248.068 161.446 246.387 161.446C245.11 161.446 244.576 160.69 244.576 158.88C244.576 153.084 243.395 152.446 232.663 152.446C221.982 152.446 220.984 152.892 220.31 157.971C219.917 160.937 219.892 160.948 211.996 161.446L204.076 161.946L203.774 167.196C203.59 170.395 203.883 172.446 204.524 172.446C205.193 172.446 205.576 176.265 205.576 182.946V193.446H181.646H157.715L157.396 191.229C157.064 188.931 155.517 187.957 147.076 184.734C144.09 183.594 142.128 182.245 142.205 181.385C142.276 180.594 144.9 169.146 148.035 155.946C154.011 130.785 154.421 126.191 151.138 121.182C150.19 119.734 147.407 117.783 144.953 116.846C140.638 115.198 139.949 115.229 123.785 117.798C114.595 119.259 105.891 120.719 104.443 121.044L101.81 121.634L102.862 117.04L103.913 112.446H125.244C143.539 112.446 146.576 112.232 146.576 110.946C146.576 110.121 147.223 109.446 148.013 109.446C149.094 109.446 149.311 110.304 148.888 112.91C148.391 115.973 148.646 116.521 151.084 117.632C153.651 118.801 154.03 118.665 156.532 115.667C158.011 113.896 159.677 112.446 160.234 112.446C160.79 112.446 162.404 111.146 163.82 109.557C166.334 106.735 166.631 106.667 176.485 106.647C185.815 106.628 186.576 106.773 186.576 108.567ZM199.576 108.996C199.576 110.249 198.489 110.488 193.905 110.246C185.764 109.815 185.415 107.446 193.493 107.446C198.32 107.446 199.576 107.766 199.576 108.996ZM156.576 112.746C156.576 114.582 154.489 116.446 152.435 116.446C150.314 116.446 149.204 114.857 149.956 112.898C150.66 111.063 156.576 110.927 156.576 112.746ZM196.576 119.376C196.576 126.806 196.434 127.334 194.326 127.74C192.397 128.112 192.468 128.193 194.826 128.31C199.157 128.524 198.033 130.446 193.576 130.446C189.838 130.446 188.697 129.658 190.224 128.131C190.581 127.774 190.777 123.874 190.661 119.464L190.449 111.446H193.512H196.576V119.376ZM150.576 113.946C150.576 114.779 151.465 115.446 152.576 115.446C153.687 115.446 154.576 114.779 154.576 113.946C154.576 113.113 153.687 112.446 152.576 112.446C151.465 112.446 150.576 113.113 150.576 113.946ZM101.331 118.014C101.47 118.073 101.109 119.487 100.528 121.155C99.5003 124.102 93.3343 128.537 92.0503 127.253C91.5403 126.744 92.6283 121.091 94.0693 116.762C94.4173 115.715 96.9353 116.149 101.331 118.014ZM217.576 124.013C217.576 128.161 217.388 128.521 215.528 127.931C212.895 127.095 210.576 129.033 210.576 132.068C210.576 134.044 210.068 134.446 207.576 134.446C204.895 134.446 204.576 134.12 204.576 131.38C204.576 126.24 208.012 121.547 211.826 121.478C212.788 121.46 213.576 122.121 213.576 122.946C213.576 123.771 214.026 124.446 214.576 124.446C215.126 124.446 215.576 123.321 215.576 121.946C215.576 120.571 216.026 119.446 216.576 119.446C217.126 119.446 217.576 121.501 217.576 124.013ZM308.936 130.589C304.622 134.968 301.474 137.038 303.081 134.438C303.425 133.881 302.508 133.975 301.026 134.651C299.554 135.321 298.85 136.037 299.463 136.242C300.075 136.446 300.576 136.993 300.576 137.458C300.576 138.584 297.67 141.446 296.526 141.446C295.428 141.446 297.368 136.655 299.492 134.121C300.916 132.422 300.851 132.336 298.549 132.881C297.189 133.203 295.406 133.031 294.588 132.5C293.345 131.693 293.634 130.982 296.338 128.192C300.157 124.252 300.333 123.446 297.376 123.446C292.703 123.446 297.412 121.342 303.669 120.634C309.984 119.92 310.102 119.951 311.898 122.82L313.72 125.731L308.936 130.589ZM241.576 124.117V127.446H230.076H218.576V124.494C218.576 121.579 218.655 121.537 224.826 121.166C228.264 120.959 233.439 120.79 236.326 120.789L241.576 120.788V124.117ZM297.576 125.348C297.576 125.632 295.551 127.724 293.076 129.996C290.353 132.497 288.576 134.998 288.576 136.332C288.576 138.901 292.749 143.446 295.107 143.446C297.028 143.446 302.927 137.823 302.215 136.671C301.944 136.233 302.59 135.875 303.649 135.875C307.119 135.875 305.556 142.153 301.209 145.674C299.986 146.665 297.343 147.411 295.013 147.424C291.769 147.442 290.359 146.828 288.013 144.38C285.586 141.847 285.076 140.47 285.076 136.446C285.076 132.414 285.591 131.028 288.076 128.38C289.726 126.622 290.401 125.389 289.576 125.641C286.806 126.489 283.882 132.195 283.293 137.902C282.546 145.136 279.783 150.846 276.826 151.266C274.083 151.655 274.066 151.39 276.54 146.775C277.62 144.759 278.778 141.048 279.112 138.528C280.477 128.247 283.823 124.831 292.524 124.831C295.303 124.831 297.576 125.063 297.576 125.348ZM296.576 131.446C295.675 132.028 295.551 132.421 296.267 132.431C296.922 132.439 297.736 131.996 298.076 131.446C298.843 130.204 298.497 130.204 296.576 131.446ZM196.576 136.375C196.576 140.712 198.259 144.446 200.213 144.446C201.993 144.446 204.576 142.057 204.576 140.411C204.576 138.894 205.261 138.446 207.576 138.446C210.259 138.446 210.576 138.771 210.576 141.523C210.576 145.678 205.833 150.446 201.7 150.446C194.221 150.446 190.576 146.038 190.576 136.996C190.576 131.496 190.603 131.446 193.576 131.446C196.504 131.446 196.576 131.565 196.576 136.375ZM212.576 136.446C212.576 136.996 210.551 137.446 208.076 137.446C205.601 137.446 203.576 136.996 203.576 136.446C203.576 135.896 205.601 135.446 208.076 135.446C210.551 135.446 212.576 135.896 212.576 136.446ZM271.325 144.039L275.75 146.632L273.601 148.92L271.452 151.207L274.74 152.353C277.65 153.368 278.206 153.262 279.585 151.434L281.143 149.368L286.388 151.683L291.633 153.998L284.834 162.972C277.542 172.596 274.576 177.937 274.576 181.446C274.576 184.569 277.465 190.255 279.929 191.981C281.865 193.336 281.566 193.446 275.938 193.446H269.856L269.137 187.696C268.742 184.534 268.224 176.096 267.986 168.946C267.749 161.796 267.195 152.684 266.756 148.696C266.317 144.708 266.17 141.446 266.429 141.446C266.688 141.446 268.891 142.613 271.325 144.039ZM286.596 144.696L288.991 147.946L286.534 146.327C285.182 145.436 283.931 143.973 283.753 143.077C283.28 140.694 283.91 141.053 286.596 144.696ZM124.039 156.448C122.865 163.6 121.642 169.713 121.321 170.034C121 170.355 120.251 169.708 119.657 168.597C119.062 167.485 115.839 163.133 112.495 158.925C109.151 154.717 106.702 150.987 107.053 150.636C108.056 149.632 122.9 143.634 124.625 143.535C125.992 143.456 125.923 144.977 124.039 156.448ZM191.527 156.564C190.617 158.762 190.539 160.164 191.265 161.314C193.902 165.495 197.638 161.425 195.625 156.564C194.915 154.849 193.993 153.446 193.576 153.446C193.159 153.446 192.237 154.849 191.527 156.564ZM242.246 157.946C242.394 161.452 242.332 161.575 241.738 158.946L241.061 155.946L232.319 155.657C223.601 155.369 223.576 155.375 223.576 157.848C223.576 159.212 223.126 160.606 222.576 160.946C221.121 161.846 221.334 156.088 222.81 154.612C223.653 153.769 226.903 153.467 233.06 153.662L242.076 153.946L242.246 157.946ZM194.969 157.028C196.079 159.92 195.598 161.446 193.576 161.446C192.476 161.446 191.576 160.808 191.576 160.028C191.576 157.952 192.67 155.446 193.576 155.446C194.008 155.446 194.635 156.158 194.969 157.028ZM239.576 158.946C239.576 161.39 239.409 161.446 232.076 161.446C224.743 161.446 224.576 161.39 224.576 158.946C224.576 156.502 224.743 156.446 232.076 156.446C239.409 156.446 239.576 156.502 239.576 158.946ZM249.523 166.196C250.096 168.259 250.567 170.284 250.57 170.696C250.573 171.108 247.201 171.446 243.076 171.446C236.243 171.446 235.576 171.268 235.576 169.446C235.576 167.827 234.909 167.446 232.076 167.446C229.243 167.446 228.576 167.827 228.576 169.446C228.576 171.335 227.909 171.446 216.576 171.446H204.576V167.613C204.576 165.504 204.876 163.479 205.243 163.113C205.609 162.746 215.488 162.446 227.196 162.446H248.482L249.523 166.196ZM234.576 172.446C234.576 176.046 234.326 176.446 232.076 176.446C229.909 176.446 229.576 176.002 229.576 173.113C229.576 169.306 230.159 168.446 232.743 168.446C234.215 168.446 234.576 169.234 234.576 172.446ZM337.601 170.492C339.387 173.83 338.441 178.894 335.965 179.247C334.275 179.489 333.735 178.891 333.254 176.247C332.924 174.432 332.359 171.934 331.998 170.696C331.438 168.774 331.72 168.446 333.924 168.446C335.502 168.446 336.932 169.242 337.601 170.492ZM228.576 175.006C228.576 177.354 228.888 177.541 232.326 177.256C235.338 177.007 236.139 176.503 236.396 174.696C236.694 172.597 237.205 172.446 244.037 172.446C251.013 172.446 251.389 172.564 251.987 174.946C252.332 176.321 253.056 177.446 253.595 177.446C255.475 177.446 254.56 181.227 252.326 182.688C251.088 183.498 247.256 185.187 243.81 186.443C239.002 188.194 237.405 189.281 236.945 191.112L236.346 193.498L221.711 193.222L207.076 192.946L206.791 182.696L206.506 172.446H217.541H228.576V175.006ZM266.413 179.333C266.842 182.366 265.162 183.411 259.826 183.431C255.794 183.445 255.576 183.296 255.576 180.529C255.576 177.114 256.654 176.487 262.076 176.751C265.463 176.916 266.128 177.312 266.413 179.333ZM49.8993 183.466C49.9963 183.478 60.8763 185.705 74.0763 188.416L98.0763 193.344L67.6713 193.395C38.2774 193.444 37.3214 193.385 38.9213 191.617C39.8313 190.611 40.5763 189.297 40.5763 188.695C40.5763 188.094 42.4883 185.962 44.8263 183.957C48.0883 181.159 49.1513 180.676 49.3993 181.879C49.5773 182.741 49.8023 183.455 49.8993 183.466ZM340.278 183.642C342.698 185.988 343.576 187.718 343.576 190.142V193.446L321.326 193.38C299.93 193.317 299.287 193.258 304.576 191.858C315.2 189.044 331.698 183.23 332.881 181.883C334.768 179.734 336.727 180.2 340.278 183.642ZM120.576 191.946C120.576 192.823 119.666 193.446 118.385 193.446C116.244 193.446 116.238 193.413 118.135 191.978C120.569 190.137 120.576 190.136 120.576 191.946Z" fill="#EF233C"/>
</svg>
