<svg width="103" height="16" viewBox="0 0 103 16" fill="none" xmlns="http://www.w3.org/2000/svg">
<path d="M6.48 14.2252L5.34545 15.3597L4.2109 14.2252V9.49064L5.62909 8.07246L6.48 8.92337V14.2252ZM6.48 6.34882L5.62909 7.22155L4.2109 5.78155V4.0361L5.34545 2.90155L6.48 4.0361V6.34882ZM10.6909 1.13428L9.53454 2.29064H1.13454L-5.00679e-06 1.13428L1.13454 -0.000266075H9.53454L10.6909 1.13428ZM16.0073 10.9088V9.29428H17.6437L22.0073 13.6361V15.2725H20.3709L16.0073 10.9088ZM14.9818 9.49064V13.0034L12.7128 15.2725V8.92337L13.5637 8.07246L14.9818 9.49064ZM12.7128 6.34882V0.436097L14.9818 2.70519V5.78155L13.5637 7.22155L12.7128 6.34882ZM19.9782 6.50155L21.1128 7.6361L19.9782 8.77064H15.1346L14 7.6361L15.1346 6.50155H19.9782ZM22.3782 6.34882L21.5273 7.22155L20.1091 5.78155V2.70519L21.2437 1.57064L22.3782 2.70519V6.34882ZM20.8291 1.13428L19.6946 2.29064H15.4182L13.1491 -0.000266075H19.6946L20.8291 1.13428ZM34.1746 -0.000266075L31.9055 2.29064H27.6291L25.3601 -0.000266075H34.1746ZM27.1928 9.49064V13.0034L24.9237 15.2725V8.92337L25.7746 8.07246L27.1928 9.49064ZM24.9237 6.34882V0.436097L27.1928 2.70519V5.78155L25.7746 7.22155L24.9237 6.34882ZM34.5891 8.92337V15.2725L32.3201 13.0034V9.49064L33.7382 8.07246L34.5891 8.92337ZM32.3201 5.78155V2.70519L34.5891 0.436097V6.34882L33.7382 7.22155L32.3201 5.78155ZM32.1891 6.50155L33.3237 7.6361L32.1891 8.77064H27.3455L26.211 7.6361L27.3455 6.50155H32.1891ZM39.4037 9.49064V12.567L37.1346 14.8361V8.92337L37.9855 8.07246L39.4037 9.49064ZM37.1346 6.34882V0.436097L39.4037 2.70519V5.78155L37.9855 7.22155L37.1346 6.34882ZM37.571 15.2725L39.8401 13.0034H44.1164L45.251 14.1379L44.1164 15.2725H37.571ZM46.8001 6.34882L45.9492 7.22155L44.531 5.78155V2.70519L45.6655 1.57064L46.8001 2.70519V6.34882ZM45.251 1.13428L44.1164 2.29064H39.8401L37.571 -0.000266075H44.1164L45.251 1.13428ZM46.8001 12.567L45.6655 13.7016L44.531 12.567V9.49064L45.9492 8.07246L46.8001 8.92337V12.567ZM59.011 -0.000266075L56.7419 2.29064H52.051L49.7819 -0.000266075H59.011ZM59.011 15.2725H49.7819L52.051 13.0034H56.7419L59.011 15.2725ZM51.6147 9.49064V12.567L49.3456 14.8361V8.92337L50.1965 8.07246L51.6147 9.49064ZM49.3456 6.34882V0.436097L51.6147 2.70519V5.78155L50.1965 7.22155L49.3456 6.34882ZM56.611 6.50155L57.7456 7.6361L56.611 8.77064H51.7674L50.6328 7.6361L51.7674 6.50155H56.611ZM67.5347 14.2252L66.4001 15.3597L65.2656 14.2252V9.49064L66.6838 8.07246L67.5347 8.92337V14.2252ZM67.5347 6.34882L66.6838 7.22155L65.2656 5.78155V4.0361L66.4001 2.90155L67.5347 4.0361V6.34882ZM71.7456 1.13428L70.5892 2.29064H62.1892L61.0547 1.13428L62.1892 -0.000266075H70.5892L71.7456 1.13428ZM77.062 8.92337V15.2725L74.7929 13.0034V9.49064L76.2111 8.07246L77.062 8.92337ZM74.7929 5.78155V2.29064L77.062 -0.000266075V6.34882L76.2111 7.22155L74.7929 5.78155ZM89.8621 -0.000266075L87.593 2.29064H83.3166L81.0476 -0.000266075H89.8621ZM82.8803 9.49064V13.0034L80.6112 15.2725V8.92337L81.4621 8.07246L82.8803 9.49064ZM80.6112 6.34882V0.436097L82.8803 2.70519V5.78155L81.4621 7.22155L80.6112 6.34882ZM90.2766 8.92337V15.2725L88.0076 13.0034V9.49064L89.4257 8.07246L90.2766 8.92337ZM88.0076 5.78155V2.70519L90.2766 0.436097V6.34882L89.4257 7.22155L88.0076 5.78155ZM84.3857 3.94882L85.5421 2.81428L86.6766 3.94882V8.42155L85.5421 9.57792L84.3857 8.42155V3.94882ZM102.488 -0.000266075L100.218 2.29064H95.5276L93.2585 -0.000266075H102.488ZM102.488 15.2725H93.2585L95.5276 13.0034H100.218L102.488 15.2725ZM95.0912 9.49064V12.567L92.8221 14.8361V8.92337L93.673 8.07246L95.0912 9.49064ZM92.8221 6.34882V0.436097L95.0912 2.70519V5.78155L93.673 7.22155L92.8221 6.34882ZM100.088 6.50155L101.222 7.6361L100.088 8.77064H95.2439L94.1094 7.6361L95.2439 6.50155H100.088Z" fill="#010101"/>
</svg>
